/* XPM */
static char *fb646ba25a974483dbdc08ae289bc4a5kKsuRGTu9zPru2zH[] = {
/* columns rows colors chars-per-pixel */
"64 64 225 2 ",
"   c #010102",
".  c #0D0101",
"X  c #010609",
"o  c #090A0E",
"O  c #130000",
"+  c #1D0202",
"@  c #180709",
"#  c #030D12",
"$  c #0F0F16",
"%  c #140F15",
"&  c #05121A",
"*  c #06121A",
"=  c #141517",
"-  c #230203",
";  c #2B0000",
":  c #330101",
">  c #3A0305",
",  c #2B120E",
"<  c #091823",
"1  c #0A1B25",
"2  c #091D2A",
"3  c #161B25",
"4  c #271B21",
"5  c #0D222E",
"6  c #0C2433",
"7  c #162632",
"8  c #222424",
"9  c #252929",
"0  c #2B2D2C",
"q  c #312E2E",
"w  c #2D302F",
"e  c #333534",
"r  c #383A39",
"t  c #430101",
"y  c #480405",
"u  c #550000",
"i  c #5D0000",
"p  c #580709",
"a  c #561D1D",
"s  c #630000",
"d  c #6B0000",
"f  c #660B0B",
"g  c #730000",
"h  c #7C0000",
"j  c #710909",
"k  c #49261B",
"l  c #582413",
"z  c #683C10",
"x  c #443330",
"c  c #4B4436",
"v  c #6D4E2D",
"b  c #0C2E43",
"n  c #112E41",
"m  c #0F3046",
"M  c #123145",
"N  c #12354B",
"B  c #153B53",
"V  c #163E59",
"C  c #263943",
"Z  c #15425E",
"A  c #18425C",
"S  c #32464D",
"D  c #144462",
"F  c #194561",
"G  c #184867",
"H  c #164B6D",
"J  c #194D6E",
"K  c #1E506F",
"L  c #164E73",
"P  c #1A4F70",
"I  c #175075",
"U  c #1D5172",
"Y  c #1D5579",
"T  c #234C65",
"R  c #3E4F62",
"E  c #20516F",
"W  c #2B526D",
"Q  c #36556C",
"!  c #215575",
"~  c #285977",
"^  c #235778",
"/  c #245979",
"(  c #474547",
")  c #525148",
"_  c #525A5A",
"`  c #69585D",
"'  c #785D5A",
"]  c #6C6959",
"[  c #475868",
"{  c #5B5761",
"}  c #675B62",
"|  c #666667",
" . c #75726D",
".. c #6E6F70",
"X. c #767777",
"o. c #757879",
"O. c #7C7C7C",
"+. c #840000",
"@. c #8C0000",
"#. c #930000",
"$. c #9E0000",
"%. c #8F1616",
"&. c #A30000",
"*. c #AC0101",
"=. c #A20C0C",
"-. c #B10101",
";. c #BB0101",
":. c #B50C0C",
">. c #BB0B08",
",. c #B41814",
"<. c #8C2424",
"1. c #8A3F3F",
"2. c #B02D2D",
"3. c #C20000",
"4. c #CB0000",
"5. c #D50000",
"6. c #DE0000",
"7. c #C41E1E",
"8. c #D51C1C",
"9. c #E20000",
"0. c #EA0000",
"q. c #F40000",
"w. c #FF0000",
"e. c #FF0B0B",
"r. c #FF1616",
"t. c #FF1C1C",
"y. c #C72112",
"u. c #C62121",
"i. c #D52B2B",
"p. c #D93435",
"a. c #DA3939",
"s. c #FF2424",
"d. c #FD2C2C",
"f. c #FB3737",
"g. c #92561A",
"h. c #AB4929",
"j. c #9F6437",
"k. c #EE4C32",
"l. c #D4623F",
"z. c #F9612E",
"x. c #E6643B",
"c. c #FE6633",
"v. c #F96A3A",
"b. c #895B53",
"n. c #A75D49",
"m. c #B95048",
"M. c #94764E",
"N. c #BA6046",
"B. c #AA7C46",
"V. c #AB7D55",
"C. c #8C7A6D",
"Z. c #90716E",
"A. c #867B75",
"S. c #AF7070",
"D. c #D44E4E",
"F. c #E84946",
"G. c #FF4343",
"H. c #FF4848",
"J. c #ED5152",
"K. c #FA5757",
"L. c #FF5A5A",
"P. c #C86344",
"I. c #CF6C4B",
"U. c #FF6753",
"Y. c #CF6E6B",
"T. c #EA6A6A",
"R. c #FD6565",
"E. c #F86869",
"W. c #FF6969",
"Q. c #FE952D",
"!. c #E6933D",
"~. c #FD9A38",
"^. c #B5814A",
"/. c #A9866F",
"(. c #C98D51",
"). c #E89644",
"_. c #FAA046",
"`. c #CB9578",
"'. c #E78767",
"]. c #E4AA71",
"[. c #115785",
"{. c #135987",
"}. c #165C8A",
"|. c #195E8B",
" X c #1C628F",
".X c #0F6195",
"XX c #1E6390",
"oX c #136599",
"OX c #14669A",
"+X c #19699E",
"@X c #0C69A7",
"#X c #0D6BA9",
"$X c #0D6EAE",
"%X c #1B6BA0",
"&X c #116EAC",
"*X c #116FAD",
"=X c #1270AD",
"-X c #0E70B0",
";X c #0E72B4",
":X c #0E75B8",
">X c #0E75B9",
",X c #1172B1",
"<X c #1274B5",
"1X c #1177BA",
"2X c #7C7E81",
"3X c #878789",
"4X c #958B8B",
"5X c #929295",
"6X c #9A999B",
"7X c #A49285",
"8X c #B5978F",
"9X c #A59B94",
"0X c #A9A19D",
"qX c #B4A192",
"wX c #9E9FA4",
"eX c #9EA0A6",
"rX c #A1A1A5",
"tX c #A7A7AA",
"yX c #B5A9A6",
"uX c #AEAEB0",
"iX c #B3B2B3",
"pX c #BDBEBE",
"aX c #C3BFBB",
"sX c #BFC1C2",
"dX c #C1C1C1",
/* pixels */
"G ;X:X;X$X$X<X<X,X,X<X<X,X,X,X,X,X$X$X-X,X,X<X;X$X$X,X,X$X$X$X,X,X<X,X,X;X$X$X,X,X$X$X$X<X,X,X,X<X<X,X,X,X,X;X$X$X;X,X,X,X-X:X;X",
"G :X<X|.[.[.XXXX|.}. XXX|.|.|.|.|.{.[.}.|.|.XX}.[.[.|.|.[.[.}.|.|.XX|.}.}.[.[.|.|.}.[.}.XX|.}.|.XXXX|.|.|.|.}.{.{.}.|.|.|.}.;X:X",
"G :X=XU G G ^ / U G U U U U U U U J H U ! ! U J G J U U U K U U U ! J J J H H U ! J G J / U G J U U U U U U P H J U P J J L #X<X",
"G :X=XU G H ^ / U G U U U U U U U J J U ^ ! U J H J U U U U U U U U J H H H J U ! J G J / P G H U U U U U U U J J U U H H L #X<X",
"J :X$XU P P U U P J ! ! U U U U U J H U ! ! U P P P U U U U U U U J P P P P P P J P P P U P J P ! ! U U U U U H H ! U J J I #X<X",
"J :X#XL U U H G J U / / U U U U U H H U ! ! U U U U U U U U U U U H U U U U U H H P ! U G J U U / / U U U U U H H ^ ! U U I #X:X",
"E :X#XP U U J H P U ! ! U U U U U H H U ! ! P U U U U U U U U U P H U U U U U J H P U U H P U U ! ! U U U U U H H ! ! U U L #X:X",
"~ 1X*XU U U U U U U H H P U U H H H H J U P H P U U / ! U U J G H J P U U / / U U U U U U U U U H H U U J H H H H U U / ^ L #X:X",
"~ 1X*XU U U U U U U H H P U P J J H H J U P H P U U / ! U U J H H J P U U / / U U U U U U U U U H H U U J J H H H P U / / L #X:X",
"E 1X,X! U U J H P U U U J J J U U H H P U U H J J P ! ! J H U ! U H J U U U U ! ! U U P H P U U U U J J P U U H H J U ! ! L @X<X",
"J 1X=X! U U H G P U P P J J P ! ! P J P U P J J J P U U J H U ! U H U ! U U U ! ! U U P H P U U P P J J U ! U J J J P U U I #X:X",
"J :X*XU U U H H U U H G J U U / / U U J H J U U U P H H U U J G H U ! / ! U U U U U U U H U U U G G U U ! / ! U U U P H H Y =X;X",
"J :X*XU U U J H U U H H P U U ! ! U U J H J U U U U H H U U J H H U ! ! ! U U U U U U U H U U U H H U U ! ! ! U U U U H H Y *X;X",
"J :X*XU U U U U U U ! ! F B B B B B B B B H U ! ! ! U U U U U U U U P J J U U U U U U U U U U U ! ! U U P J J U U ! ! U P Y *X:X",
"J :X*XU U U U U U U / / 6   X X X X X X # G U ! / ! U U U U U U U U J H H U U U U U U U U U U U / / U U J H H U U ! ! U U Y *X<X",
"! :X$XU ! ! U U U ! J J 3 . @ @ O O O O @ A G G J U U U U U U U U U J H J ! ! J J U ! U U U ! ! U U U U J H H P P U U U U Y *X<X",
"~ :X#XP / / U U ! ! 1 * y j m.m.%.h h h g = * * 2 J U U U U U U U U J H P / / H H U / ! U ! / ! U U U U P H H J J U U U U Y *X:X",
"~ :X#XP / / U U ! J X   d >.H.H.i.7.u.u.,.t : : : N N N N A U U U U J H U / / H G U / ! U U ! ! U U U U P J J H H U U U U Y =X:X",
"~ :X#XU / / U U U G X   $.w.e.w.H.R.R.R.K.*.&.&.#.X       5 ! U U U U U U / ! H G U / ! U U U U U U H H P U U H H U U U K / ,X<X",
"! :X#XU ! ! U J F A @ O *.w.w.w.f.L.L.L.K.,.:.:.=.+ O O O 3 G F F F J U U ! ! H H U / ! U U U U U U H H P U U H H U U U U ^ =X<X",
"K :X$XP U U U B # % &.*.9.w.w.w.e.r.r.r.t.J.J.J.F.@.+.+.@.p * * * * B U U U U J H P U U U P H J U U U P U U U U U ! ! U K I #X:X",
"J :X$XP U U U N   O 4.6.q.w.w.w.w.w.w.w.e.L.R.R.K.:.-.-.-.g         M U J J U J J P U U U J H J U U U U U U U U U ! ! U K L @X:X",
"J :X$XP U U U M   O -.3.0.w.w.w.w.w.w.w.e.d.d.d.d.a.a.a.a.2.i i i i 4 6 6 6 A J J P U U P H H J U U U U U U U U U U U U U L @X<X",
"G :X$XU U U P m   . $.*.9.w.w.w.w.w.w.w.w.w.w.w.e.R.R.R.W.F.*.*.*.*.>       N P J U U U H J J P U U U U U U U U U U U U U L #X<X",
"G :X*XU U U U N   . #.$.6.w.w.w.w.w.w.w.w.w.w.w.e.H.H.H.H.a.7.7.7.7.f ; : : 7 B B B B J U [ } [ U U H H U / ! U U U U U U Y *X<X",
"G :X=XU U U U N   . h @.5.w.w.w.w.w.w.w.w.w.w.w.w.e.e.e.w.s.R.R.R.R.u.&.&.&.: X X X X G U n.c.N.U U H H U / ! U U U U U U Y *X:X",
"G :X=XU J J P N X o d g 4.q.q.q.w.w.w.w.w.w.w.w.w.w.w.w.w.t.L.L.L.L.i.:.:.:.t O O O @ V D 1.k.n.! ! H H P ! Q Q W J P ! ! Y *X:X",
"G :X=XU H H H D B B + + +.3.;.;.0.w.w.w.w.w.w.w.w.w.w.w.w.e.r.r.r.r.f.J.F.k.=.+.+.+.h $ * , , q / / H H J W N.P.{ H P / / Y *X;X",
"G :X*XU U U J J U J X   d *.&.&.9.w.w.w.w.w.w.w.w.w.w.w.w.w.w.w.w.w.G.R.U.c.y.*.*.*.$.O       1 ! ! J J U Q x.c.` L P ! ! Y *X;X",
"J :X#XU / / U U U G X   u @.+.+.;.5.5.5.5.w.w.w.w.w.w.w.w.w.w.w.w.w.t.d.k.U.k.p.2.1.1.x r v g.v 6 A U U ! ~ b.b.R U U G G Y =X:X",
"K :X#XU / / U U U G * # > u u u @.&.$.$.&.0.q.q.q.w.w.w.w.w.w.w.w.w.e.e.d.R.T.T.Y.C.C.A.2X(._.B.= S [ Q ! / U H H U P H H U *X:X",
"~ :X#XL U U U U U U F F 3 O O O u g g g g -.;.;.3.w.w.w.w.w.w.w.w.w.f.L.L.R.S.A./.!.).9X6X9XqX4X| ^.!.M.P ! U J J H J U U L #X:X",
"~ :X#XL U U U U U U U U 5   X X t s s s s &.&.&.-.q.w.w.w.w.w.w.w.w.G.W.R.E.Z.o./.~._.0XrXrXrX5Xo.(.Q.B.L U U J J H J U U L @X:X",
"U :X$XU U U ! ! U J ! ! V M M b , ; ; ; : h +.+.@.4.4.4.4.6.w.w.w.w.G.W.T.S.4X5X7X`.`.iXiXiXiXrXX.v z c P J J H H J P U U U *X:X",
"J :X=XU U U ! ! P H ! / ! U U P <         i s s d &.*.*.&.4.w.w.w.w.G.W.Y.X.5XrXrXeXrXpXdXsXdXtXX.8   2 U J H H J U U U U Y =X;X",
"J 1X,X! U U U U U U / / P G H U 6 1 1 1 < > t t u @.#.#.#.-.9.9.9.9.f.K.Y.X./.`.8XuXtX3XO.3X5X3Xo.8   4 ` ` ! U U ! ! H H Y =X;X",
"J 1X,X! U U U P U U / / P G H U U U U J D X     . s d d s +.*.*.*.*.8.f.D.o.I.c.'.sXiX=   8 e ( o.8   l c.x.Q U U / ! H H Y =X;X",
"J :X=XU U U J H J J U U U U U U U J J H D * # # o u u u u g &.&.&.$.8.d.D.o.I.v.'.dXiX9 = e ( _ O.8   l x.P.W J J U U H H Y *X:X",
"J :X*XU U U H H H H U U ! / ! U U H H H G V A A B O O O O : g g g g &.>.2.o.7X8XyXdXpXrX6X5X4X5X6X0   8 [ [ U H H U U H H Y *X:X",
"J :X*XU U U J J P U U U ! / ! U U J J J J P U U G X       - s s s s @.*.<.o.5XwXuXaXaXdXdXuXrXwX6Xe   7 Y U U J J U U U U U $X:X",
"G :X=XU U U U U ! / U U ! / ! U U U U U U U U U J M n n b 3 ; ; ; ; s +.z o.3X3X7X].].yXuXtXrX3X( v g.v U U U U U U U / ! L #X:X",
"G :X=XU U U U P ! ! U U ! ! ! U U U U U U U U U U U U U P N # # # # > u a | Z.Z.V.!.).6X6X9XqX .# j.!.V.[ [ U U U U U ! ! L #X:X",
"J :X=XU H H H H U U J H U U U U U U U U U U / P G J ! ! U J F Z Z D < . . o h.v.I.A.A.O.O.(.~.^.D T Q ' x.l.W U U ! ! U U L #X:X",
"J :X=XU H H H H P U H H P U U U U U U U U U / P H P / / U U P H H L 2   X   h.z.P.........(.~.B.H H L ` c.x.W U U ! ! U K I #X:X",
"G :X=XU U U U U J J J H U U U U U U U U U U U U J U / / J H J U U U V N N m k l k 9 9 9 9 ) ] _ H J U Q ` ` ! U U ! ! U U U *X:X",
"G :X*XU / / U U P H H H U U U U U U U U U U P P P U ! ! J H U U U U U U U P <             m L H H J U U U U U U U ! ! P P U *X<X",
"~ :X#XP / / U U U U H H U U ! ^ ! U U U U U H H H J U U ! / U U P H P U U / M 2 2 2 5 5 2 ( ' { H H U U ! / ! U U U P H H Y *X<X",
"^ :X#XP ! ! U U U U H H U U ! ! ! U U U U U H H H J U U ! / ! U P H P U ! / / G G U ! ! U n.c.N.H H U U ! / ! U U U P H H U *X<X",
"! :X$XU U U U U U U U P U U U U U J H H H J ! U U U U U U U U U U H P U U ! U P P U U U U b.x.n.P U U U U U U J J U U H H Y *X:X",
"J :X*XU U U U U U U U U U U U U U H H H G J / ! U U U U U U U U U H P U U U U U U U U U U Q R Q U U U U U U J H H U U H H Y =X:X",
"J :X*XU J J U ! U U ! ! U U U U U J H H H P / U J P U U J J U U U U U U U P P U U P J P ! U U U ! ! U U U U P H H U U P P U *X:X",
"G :X=XU H H ! / U U ! / ! U U U U J J P U U / P G J U U H H J U U / ! U P H H U U J H J / U U U / / U U U U U J J U U U U L #X:X",
"G :X=XU H H ! / U U ! ! U U U U U J J P U U ! P H J U U J H P U U ! U P P H H U U J H J / U J U ! ! U U U U U J J U U U U L #X:X",
"G :X=XU G H / / U G U U U U U U U J J U ! ! U J H J U U U U U U U U J H H H H U ! J H J / U G H U U U U U U U J J U P H H L #X<X",
"G :X=XU G H ! / U H U U U U U U U J H U ! ! U J H J U U U U U U U U J H H J J U U J G J / P H H U U U U U U U J J U U H H L #X<X",
"J :X$XP U U P P P P ! ! U U U U U H H U ! ! U U U U U U U U U U U J P U U P P J J P U U P P P U ! ! U U U U U H H ! ! P J I #X<X",
"J :X#XL U U H H P U / / U U U U U H H U ! ! U U U U U U U U U U U H U U U U U H H U ! U G J U ! / / U U U U U H H ^ ! U U I #X:X",
"! :X$XU U U J J P U U U U U U U U H H U ! U P U U U ! U U U U P J H P U U ! ! P J U U U J P U U U U U U U U P H H U ! ! ! L #X:X",
"! 1X*XU U U U U U U H H P U P J J J J P U P H J U U ! ! U U J H H J P U U ! ! U U U U U U U U P H H U U P H J J J J U / ! L #X:X",
"K :X*XY U U U U U U L L U / Y L L Y / Y Y U L U U U U U U U Y ! Y U U U U U U U U U U U U U U U L L ! / U L U / ^ U U I U Y *X;X",
"J :X:XOXOXOXOXOXOXOX.X.X+X%X+X.X.X%X%X+XOXOX.XoX+XOXoXoXOXOX+X%X+XOXOXOXOXOXOXOXOXOXOXOXOXOXOXoX.X.X+X%XOX.XoX%X%X+XoX.X.XOX<X;X",
"T =X:X<X<X<X:X:X:X:X:X;X<X1X<X:X:X<X<X<X:X:X:X:X;X:X:X:X;X;X:X<X<X:X;X;X;X:X:X:X:X<X<X<X:X:X<X:X:X:X1X1X<X;X:X<X<X<X:X:X:X:X:X*X",
"C U U U / / U U U U U U ! / ! U U U U U U U U P H P U U H H P U U U J H H U U U U ! / ^ U U U U U U ^ / ! U U U U U U U U U U T ",
"0 0 0 0 e e 0 0 0 0 0 0 e r e w w 0 0 0 0 0 0 9 8 9 w w 8 8 9 w w 0 9 8 9 w w 0 0 w e e 0 0 0 0 0 0 e r e w w 0 0 0 0 0 0 0 0 0 "
};
