/* XPM */
static char *_c91a0d53ec74a3587a2a94e2596aa3fsqNJf2UD9bgJCXX0[] = {
/* columns rows colors chars-per-pixel */
"64 64 60 1 ",
"  c #2C2821",
". c #2D2822",
"X c #2E2922",
"o c #211D19",
"O c #3A352E",
"+ c #1F1C18",
"@ c #39342D",
"# c #2B2720",
"$ c #302B24",
"% c #25211C",
"& c #2F2A23",
"* c #231F1B",
"= c #38342D",
"- c #2C2721",
"; c #2E2923",
": c #231E1A",
"> c #221E1A",
", c #36322B",
"< c #312C25",
"1 c #38332C",
"2 c #24201B",
"3 c #24201C",
"4 c #2D2821",
"5 c #26221D",
"6 c #2D2922",
"7 c #3C3730",
"8 c #2F2A24",
"9 c #37322C",
"0 c #39342E",
"q c #221F1B",
"w c #302B25",
"e c #322D26",
"r c #2E2A23",
"t c #25201C",
"y c #231F1A",
"u c #2F2B24",
"i c #2C2720",
"p c #37322B",
"a c #26221C",
"s c #1F1C17",
"d c #1D1A16",
"f c #2B2621",
"g c #36312B",
"h c #2B2620",
"j c #211E1A",
"k c #363029",
"l c #211E19",
"z c #37312A",
"x c #23201B",
"c c #201C18",
"v c #2A2620",
"b c #353029",
"n c #221E19",
"m c #2E2822",
"M c #23201C",
"N c #3A342D",
"B c #25211D",
"V c #2B2721",
"C c #201D18",
"Z c white",
/* pixels */
"       ...XXXooOOO+++@@@###@@###$$$%%%%%%&&XXXooo***...XXX      ",
"    ===   XXX--@@@ooo@@@   ;;XXX:::$$$>>>oo&&&,,,XXXXXX>>>     =",
"    OOO   XXX..@@@ooo@@@   ..XXXooo<<<>>>++&&&@@@&&&XXXooo     O",
"    OOO   XXX..@@@ooo@@@   ..XXXooo<<<>>>++&&&@@@&&&XXXooo     O",
"1---222XXX333&&&&&%%%;;;$$$33&&&444...444**@@@...555   66611---2",
"@---oooXXX***&&XXX%%%...$$$**&&&XXX...XXX**OOO---%%%   &&&@@---o",
"@---oooXXX***&&XXX%%%...$$$**&&&XXX...XXX**OOO---%%%   &&&@@---o",
";XXXoooOOOooo$$555%%%$$$333**&&&XXX   ---**XXXOOOooo---:::;;XXXo",
".XXXooo777ooo$$%%%%%%$$$*****&&&XXX   ---**   777ooo---ooo..XXXo",
"X   444888...$$%%%&&&&&&XXX99###>>>===   00---qqqwww111---XX   4",
"X   XXX...&&&$$%%%$$$&&&&&&OO###oooOOO   77---+++eee@@@...XX   X",
"X   XXX...&&&$$%%%$$$&&&&&&OO###oooOOO   77---+++eee@@@...XX   X",
"oOOO---333<<<33%%%<<<:::333XX111oooXXX$$$rr...;;;XXX;;;---ooOOO-",
"+777---***<<<**%%%<<<ooo***  OOOooo   $$$  ...$$$......---++777-",
"+777---***<<<**%%%<<<ooo***  OOOooo   $$$  ...$$$......---++777-",
";qqqwww222tttrr444yyy@@@---  ;;;...111yyy  $$$ttt$$$###999;;qqqw",
"$+++<<<222***$$XXXooo777...     &&&OOOooo  $$$***$$$###@@@$$+++<",
"$+++<<<222***$$XXXooo777...     &&&OOOooo  $$$***$$$###@@@$$+++<",
"y&&&yyyuuu444ii@@@ooorrr   XX---yyy<<<%%%$$ttt%%%&&&ppp666yy&&&y",
"o<<<ooo<<<XXX##OOOooo      XX---ooo$$$aaa$$***%%%&&&@@@###oo<<<o",
"o<<<ooo<<<XXX##OOOooo      XX---ooo$$$aaa$$***%%%&&&@@@###oo<<<o",
"-&&&;;;%%%...11666###   111ss999;;;ttt***ttrrrXXX&&&&&&...--&&&;",
".&&&$$$***...OO###      OOOdd@@@$$$********$$$&&&&&&XXX.....&&&$",
"1yyy$$$***XXXqq...ppp   &&&44@@@+++888;;;**$$$XXX333333...11yyy$",
"Oooo$$$***XXX++...@@@   ...&&@@@ddd<<<$$$**$$$XXX******...OOooo$",
"Oooo$$$***XXX++...@@@   ...&&@@@ddd<<<$$$**$$$XXX******...OOooo$",
"$***&&&666111ff   rrruuu:::ttrrrggg444%%%88yyyXXX>>>ooo&&&$$***&",
"X***&&&&&&@@@..      $$$ooo**   OOO---***<<oooXXX>>>ooo&&&XX***&",
"X***&&&&&&@@@..      $$$ooo**   OOO---***<<oooXXX>>>ooo&&&XX***&",
" gggyyy$$$333..111XXX%%%;;;ooppprrrppphhhjj...111######   XXhhhy",
" @@@ooo$$$ooo..OOOXXX***$$$oo@@@   @@@---++&&&OOO         XX---o",
" @@@ooo$$$ooo..OOOXXX***$$$oo@@@   @@@---++&&&OOO         XX---o",
"k666***&&&---..$$$333%%%<<<oo777lllrrr   ,,---333XXX   111++ppp;",
"z###***&&&XXX..XXX***%%%<<<oo777+++      OO---oooXXX   OOOdd@@@$",
"z###***&&&XXX..XXX***%%%<<<oo777+++      OO---oooXXX   OOOdd@@@$",
"z...444   ...$$333;;;444***&&xxx...111   rrXXX***$$$   88844@@@c",
"z...XXX   ...$$***$$$XXXooo<<+++&&&OOO     XXX***$$$   ...&&@@@d",
".333...ppp---yy%%%...pppfffXX444XXX333...XX         uuu:::ttrrrg",
"-***...@@@---oo%%%...@@@.....&&&XXXooo...XX   XXX###$$$ooo**   O",
"-***...@@@---oo%%%...@@@.....&&&XXXooo...XX   XXX###$$$ooo**   O",
"8***$$$rrr...,,---XXXrrr     ...XXXooo111llppp###pppjjj,,,  ...8",
"$***$$$   ...OO...XXX        ...XXXoooOOO++@@@###@@@+++OOOXX....",
"$***$$$   ...OO...XXX        ...XXXoooOOO++@@@###@@@+++OOOXX....",
"&888%%%XXX333rrXXXyyy      11   XXXfff@@@oo@@@   rrrvvv@@@yy$$$y",
"&<<<***XXX***  XXXooo      OO   XXX...@@@oo@@@         @@@oo$$$o",
"&<<<***XXX***  XXXooo      OO   XXX...@@@oo@@@         @@@oo$$$o",
"X%%%%%%OOOccc11   ...ppp---ttXXXttt&&&$$$33888uuu333bbb666**&&&-",
"X***%%%777+++OO   &&&@@@---ooXXX***&&&XXX%%...$$$***zzz###**&&&X",
"X***%%%777+++OO   &&&@@@---ooXXX***&&&XXX%%...$$$***zzz###**&&&X",
"1hhh%%%888vvvrr---yyy888XXXooOOOooo$$$555%%$$$%%%***zzz...     .",
"O---%%%...     ---ooo...XXXoo777ooo$$$%%%%%$$$******zzz...XX   .",
"O---%%%...     ---ooo...XXXoo777ooo$$$%%%%%$$$******zzz...XX   .",
"rOOOnnn&&&bbb  pppfffXXX   --888444$$$%%%;;&&&...pppmmm333..ppp-",
" 777ooo&&&zzz  @@@...XXX   XX...&&&$$$%%%$$&&&&&&OOO---***..@@@-",
"-MMM&&&jjjNNNll888---jjjOOO--ttt<<<%%%%%%<<***%%%rrr888***$$rrr.",
"-+++<<<+++OOO++...---+++777--***<<<***%%%<<ooo***   $$$***$$   .",
"-+++<<<+++OOO++...---+++777--***<<<***%%%<<ooo***   $$$***$$   .",
".666XXX666rrrii###ppp666MMM$$222BBB;;;444**111VVV...&&&&&&%%XXXt",
".$$$...$$$   XX###@@@$$$+++<<222***$$$XXXoo777......&&&<<<**XXX*",
".$$$...$$$   XX###@@@$$$+++<<222***$$$XXXoo777......&&&<<<**XXX*",
"$%%%$$$***.....ppp666***;;;**&&&---   111oorrr   &&&XXXBBB%%OOOc",
"$***$$$ooo.....@@@###ooo<<<oo<<<XXX###OOOoo      &&&XXX***%%777+",
"$***$$$ooo.....@@@###ooo<<<oo<<<XXX###OOOoo      &&&XXX***%%777+",
"%%%%XXXfffOOOjj$$$...fff&&&XXBBB...111666vv   111CCC111hhh%%888v"
};
