/* XPM */
static char *_553f73a24594158ca04616732afd44f564xsiCIGRD6G4LG[] = {
/* columns rows colors chars-per-pixel */
"64 64 191 2 ",
"   c #040303",
".  c #080706",
"X  c #090807",
"o  c #0C0B0A",
"O  c #100E0D",
"+  c #151616",
"@  c #191714",
"#  c #1D1A16",
"$  c #16171B",
"%  c #1B1B1B",
"&  c #171819",
"*  c #24180F",
"=  c #331806",
"-  c #301A0B",
";  c #261910",
":  c #221E1A",
">  c #25211D",
",  c #29241E",
"<  c #2F2B18",
"1  c #362519",
"2  c #3C2719",
"3  c #3F2918",
"4  c #302B19",
"5  c #363016",
"6  c #393219",
"7  c #1C1D22",
"8  c #1C1F29",
"9  c #1C2026",
"0  c #1D212D",
"q  c #1D2333",
"w  c #1E2439",
"e  c #262321",
"r  c #2B2621",
"t  c #2E2923",
"y  c #21262F",
"u  c #312C25",
"i  c #342E29",
"p  c #3B2C25",
"a  c #36312B",
"s  c #3A342D",
"d  c #212835",
"f  c #252739",
"g  c #3C3730",
"h  c #3C3831",
"j  c #442A17",
"k  c #462B18",
"l  c #4A3E1A",
"z  c #573117",
"x  c #593217",
"c  c #45372E",
"v  c #473930",
"b  c #4B3D33",
"n  c #594C15",
"m  c #4D401A",
"M  c #6B5A12",
"N  c #6A5519",
"B  c #615519",
"V  c #715D16",
"C  c #675514",
"Z  c #7B670E",
"A  c #7C680E",
"S  c #564336",
"D  c #464133",
"F  c #634C3D",
"G  c #1F2640",
"H  c #1F2947",
"J  c #202741",
"K  c #202947",
"L  c #202A4B",
"P  c #28344E",
"I  c #373845",
"U  c #212D54",
"Y  c #222E59",
"T  c #253651",
"R  c #22315E",
"E  c #2D395D",
"W  c #233364",
"Q  c #24346B",
"!  c #293A6B",
"~  c #243671",
"^  c #263A73",
"/  c #263A7D",
"(  c #2E425D",
")  c #3C4F62",
"_  c #2D4877",
"`  c #3F5773",
"'  c #785B47",
"]  c #7C5D49",
"[  c #6A5141",
"{  c #7F604B",
"}  c #937816",
"|  c #83624C",
" . c #89654E",
".. c #856652",
"X. c #956E54",
"o. c #A67A5C",
"O. c #AB7D5E",
"+. c #9D820A",
"@. c #B39407",
"#. c #A58218",
"$. c #C8A504",
"%. c #E5BB00",
"&. c #E9BE00",
"*. c #ECC100",
"=. c #AF8162",
"-. c #B48463",
";. c #B98765",
":. c #BA8867",
">. c #BD8C6B",
",. c #BF9073",
"<. c #C18F6E",
"1. c #C2906E",
"2. c #C49272",
"3. c #C89674",
"4. c #CE9A79",
"5. c #CB9877",
"6. c #D19D7C",
"7. c #D5A07F",
"8. c #273C83",
"9. c #273E8C",
"0. c #283F8D",
"q. c #29428E",
"w. c #284083",
"e. c #284192",
"r. c #29449C",
"t. c #2C4A98",
"y. c #31558D",
"u. c #2A46A1",
"i. c #2B4AA3",
"p. c #2D4EAA",
"a. c #2E50AD",
"s. c #2F51A4",
"d. c #355AA9",
"f. c #2F53B1",
"g. c #3056B4",
"h. c #325AB4",
"j. c #325CBB",
"k. c #304DA3",
"l. c #3561A9",
"z. c #3967AF",
"x. c #396BBC",
"c. c #3664B7",
"v. c #4373BC",
"b. c #3563C4",
"n. c #386BCD",
"m. c #3866C6",
"M. c #3B72CC",
"N. c #3A6DD2",
"B. c #3C72D4",
"V. c #3C75DB",
"C. c #3F7CDF",
"Z. c #3F7CE6",
"A. c #3F7EE9",
"S. c #4072CF",
"D. c #4278D6",
"F. c #407FE9",
"G. c #3F80ED",
"H. c #5487D4",
"J. c #5182D6",
"K. c #6394DC",
"L. c #6997C8",
"P. c #4182ED",
"I. c #4C85E1",
"U. c #518EEB",
"Y. c #5F9BEF",
"T. c #4285F2",
"R. c #488AF3",
"E. c #4F90F2",
"W. c #5595F4",
"Q. c #5C9CF5",
"!. c #5A9BF6",
"~. c #63A2F7",
"^. c #65A5F9",
"/. c #6CACF9",
"(. c #69A6F2",
"). c #74B3FC",
"_. c #7DBBFE",
"`. c #78B6FC",
"'. c #72ADF2",
"]. c #DAA584",
"[. c #E4AD8B",
"{. c #ECB493",
"}. c #F4BB9A",
"|. c #F9BE9D",
" X c #F1B897",
".X c #E7B08F",
"XX c #81BEFE",
"oX c #82BFFF",
"OX c #84C1FF",
"+X c #86C3FF",
"@X c #84C1FF",
/* pixels */
"o , t t r , , s g u t t t t t u u t t t u t % % # U e.0.0.0.0.0.0.0.0.0.0.8.8 # % % e u , : , t u u t t t u u t t t t , t s s u ",
"o , t t t u u t t r , r t t t r r t t t r , % % % R u.r.r.r.r.r.r.r.r.r.r.e.8 % % % r a t : r t r r t t t r r t t t t u u i t # ",
"o , t t t s s > # : : r u u u , : r u r % 0 Q ~ Q s.N.N.N.B.K.K.s.f.N.N.N.n./ Q ~ ~ K e , : t u , : r u t : : r t t u s a t >   ",
"o , t t t s s , > , , r u t t , : r u r @ q r.r.r.b.T.P.P.R.OXOXd.j.T.P.P.A.i.r.r.r.U @ # , r t , : r u t > , u t , t a a t >   ",
"o , t t t a a t t t t u t , , , , , , d Y ^ b.b.b.I.^.!.P.P.H.H.k.j.T.R.~.Q.n.b.b.m.q.Y K , , , , , , t t r t g t # , u t t >   ",
"o , r r t a a t t t t t t , , , , : @ L r.p.P.P.P.~.+X/.P.Z.r.r.r.j.T.E.OX_.R.P.P.T.j.r.Q @ , , , , r t t t t s t : , t t t >   ",
"o r r : , u u , : r u r > t t r , d G ^ g.m.W.W.W./.OX`.!.E.g.g.g.S.!.~.OXXXQ.W.W.!.D.g.q.J e r r t t t t t t > r u r , , t >   ",
"X > , r r u u , : r t r , u u e % W r.j.P.E._.XXXXXXOXOXXX`.P.P.P.Q.XXXXOXOXXXXXXXXXQ.P.n.e.w % r t r , r t t , t u r : > t >   ",
". # , u u u u , : r t t t > > W / h.V.U.).`.OXOXOXOXOXOXOXXX).).).`.OXOXOXOXOXOXOXOX`.).Y.B.q./ f : : : , t t u u t , : : t ,   ",
"X : , t t u u , : , r t t % % / r.n.T.Q.OXOXOXOXOXOXOXOXOXOXOXOXOXOXOXOXOXOXOXOXOXOXOXOX/.P.p.r.K % # : , u t r t u t , , t >   ",
"o r t , , u u , : , , , t % % / r.n.T.Q.OXOXOXOXOXOXOXOXOXOXOXOXOXOXOXOXOXOXOXOXOXOXOXOX/.P.p.r.K % % : , u u : r u u t t r :   ",
"o r r , , t t , , , , r t % % / r.n.T.Q.OXOXOXOXOXOXOXOXOXOXOXOXOXOXOXOXOXOXOXOXOXOXOXOX/.P.p.r.K % # : , u u , r t t t t t ,   ",
"X : , : > , , t u t t t t % % / r.n.T.Q.OXOXOXOXOXOXOXOXOXOXOXOXOXOXOXOXOXOXOXOXOXOXOXOX/.P.p.r.K % > r t u u u , , , t t s t   ",
"X : , , , : : t u u t t t % % / r.n.T.Q.OXOXOXOXOXOXOXOXOXOXOXOXOXOXOXOXOXOXOXOXOXOXOXOX/.P.p.r.K % , t t t t u , : , t t s t   ",
"o r t t t : > t u u t r , % % / r.n.T.Q.OXOXOXOXOXOXOXOXOXOXOXOXOXOXOXOXOXOXOXOXOXOXOXOX/.P.p.r.K @ r s i : , u , : , t t , #   ",
"o r u u t > > t u u t , : % % / r.n.T.Q.OXOXOXOXOXOXOXOXOXOXOXOXOXOXOXOXOXOXOXOXOXOXOXOX/.P.p.r.K @ r g i : : u , : , u r : @   ",
"o r t , , t t , , r u , : % % / r.n.T.Q.OXOXOXOXOXOXOXOXOXOXOXOXOXOXOXOXOXOXOXOXOXOXOXOX/.P.p.r.K % e i t : , t t r t a i , :   ",
"X , r : , u u : : r t r : % % / r.n.T.Q.OXOXOXOXOXOXOXOXOXOXOXOXOXOXOXOXOXOXOXOXOXOXOXOX/.P.p.r.K % , u r : , t t t u s s t >   ",
"o t u , , , , , , u a t , # % / r.n.T.Q.OXOXOXOXOX).~.~.~.~.~.~.~.~.~.~.~.^.XXOXOXOXOXOX/.P.p.r.K % , u t , , , t u u u t , #   ",
"o i a t r , , t t a s i r % % / r.n.T.Q.OXOXOXOX+X^.T.T.T.T.T.T.T.T.T.T.T.R._.OXOXOXOXOX/.P.p.r.H % > t t t t > r u r , , , %   ",
"o , t t t a a t t , , , t % % 8.r.n.T.Q.OXOXOX)./.H.d.l.l.l.l.l.l.l.l.l.l.z.(./._.OXOXOX/.P.p.r.H % # # , s a u , , , : , s t   ",
"o , t t t s s t t , : , t % % 8.r.n.T.Q.OXOXOX!.R.y.7 9 9 9 9 9 9 9 9 9 9 d D.R.).OXOXOX/.P.p.r.H % % # , s s u , : : : , g u   ",
"o u i t t u t r r , : , r % % / r.n.T.Q.OXOXOXH.M._ # # # # # # # # # # # e x.M.'.OXOXOX/.P.p.r.K % : , r a i : , t t t t u ,   ",
"O a a t t r r % % # % % % % % / r.n.T.Q.OXOXOX` q , = = = = = = = = = = = - y d L.+XOXOX/.P.p.r.K % # % % % % % e u u u u t >   ",
"o , t t t t t % % : , , > % % / r.n.T.Q.OXOXOX) @ ; = = = = = = = = = = = = % % L.OXXXOX/.P.p.r.K % % , , , > % e t r , r t >   ",
". # , t r : % % % [ X.X. .e % / r.n.T.Q.OXOXOX) @ ; = = = = = = = = = = = = % % v.W./.+X/.P.p.r.K + S X.X.X. .> % % : : , t >   ",
". # , u t % % % % | ;.;.o.e % / r.n.T.Q.OXOXOX) @ ; = = = = = = = = = = = = % % x.T.^.+X/.P.p.r.K + F ;.-.;.o.e % % # : , t >   ",
". # > e i ' ] ] ] ,.[.6.=.e % G L q.j.D.Q.Q.!.( @ # * * * * * * * * * * * ; @ % x.T.W.Q.I.g.R L 8 + [ 1.2.].].| ] ] S % : t >   ",
". : : % i ;.:.:.:.[.|..X2.b c , % W r.g.V.V.V._ T T T T T T T T T T T T T T T T c.V.V.V.b.e.q % i s ..7.].|.{.>.:.>.{ % % t >   ",
"o , , % i >.2.2.2..X|.}.{.=.o.a @ W u.r.i.i.i.n.Z.C.C.C.C.C.C.C.C.C.C.C.C.C.C.C.g.i.i.i.i.r.q % ' O.4.}. X|. X2.2.3...% % t >   ",
"o , r % i >.2.2.2.[. X X{.:.-.s % R e.9.9.9.9.n.F.Z.Z.Z.Z.Z.Z.Z.Z.Z.Z.Z.Z.Z.Z.Z.i.9.9.9.9.9.0 % | ;.6. X X X{.2.2.3...% % , #   ",
"o , r % u -.;.;.;.3.4.4.5.;.-.s % 8 q 0 0 0 0 w.p.p.p.p.p.p.p.p.p.p.p.p.p.p.p.p.L 0 0 0 0 0 % % | ;.<.4.4.4.5.:.;.:.] % # : @   ",
"o r r % u O.-.-.-.>.2.2.>.-.=.s % % % % % % % ~ r.r.r.r.r.r.r.r.r.r.r.r.r.r.r.r.f % % % % % % % ] -.:.2.2.2.>.-.-.-.' % % r :   ",
"o t t : , c v v v b b b b v v ! / ^ / U % : j f G G w G G G G G G G w w G G G G p j , % w / ^ / I v b b b b b b v b a : , u ,   ",
"o t t , > % % % % % % % % % % / r.r.u.Q % > z , % % % % % % % % % % % % % % % % k x 1 @ L r.r.r.H % % % % % % % % % # > , u ,   ",
"o t t , , e e , , , , r t % % / r.r.r.Q % : 1 2 2 2 2 2 2 2 2 2 2 2 2 2 2 2 2 2 1 1 > @ L r.r.r.K % : , e t t e : # : , , t >   ",
"o t t , , u t r t t t u i % % 8.u.r.u.Q % % % j x z z z z z z z z z z z z z z z > % % % L u.r.u.L % > r t s a r , , , > , t >   ",
"o t t : , t t , , t u r : % % Y Q Q Q L % 8 L i j 3 3 3 3 3 3 3 3 3 3 3 3 3 3 3 f L q % w Q Q Q w % # : , u u : u s t # : t >   ",
"o t t > , t t , : t u e % % % % % 7 7 % % q e.J # % % % % % % % % % % % % % % % ^ r.U % % 7 7 7 % % % % > u t : u h u : : t >   ",
"o i a t t u u , : r u , % % % % % % % % % w r.U q w w w w w w w w w w w w w w w 8.u.U % % % % % % % % % # , , t r , , r t a t   ",
"o r u u t r r r , t t , % % % % % % # % % q r.e.q.q.q.q.e.e.q.q.q.q.e.e.q.q.q.q.e.r.U % % # % % % % % % # , , t r , , t t u ,   ",
". # , u t > > t u e > % % % % % % l V m % 8 L L L ~ r.i.f.a.r.r.r.i.f.a.r.e.U L L L q % 6 N , % % % % % % > > t t t t t t : @   ",
". # , t t , , t u > % % % % % % % N #.N + % % % @ R u.p.j.g.r.r.r.p.j.g.r.e.8 % % % % $ l } 4 % % % % % % % % r t t t t t : @   ",
". : , , , t t e , % % % 7 U Y U Y D B M Z Z Z 6 % w W W ^ ! W W R W ^ ! W Y 7 % C A Z A V n P Y U Y w % % % # > r t t t t : @   ",
"X : , , , t t % % % % % 8 e.r.r.r.L % M &.%.%.n $ % % % % % % % % % % % % % % % @.&.%.&.+.% 8.r.r.r.R % % % % % , t t t t : @   ",
"o r r : : : : % % % % % 8 e.r.r.r.U + M *.&.&.n $ % % % % % % % % % % % % % % % @.*.&.*.+.7 8.r.r.u.W % % % % % , t t t t r :   ",
"o t t : : # # % % % % % 8 e.r.r.r.L + M *.&.*.n $ % % % % % % % % % % % % % % # @.*.&.*.+.% 8.r.r.r.R @ % % % % , t t t t t >   ",
"o r t r r : : % % % % % 9 t.p.p.p.W 8 B $.$.$.m $ % % % % % % % % % % % % % % # +.$.$.$.} q t.p.p.a.^ 0 9 % % % > r r , , t >   ",
"o , t t t # # % % % % % 0 B.Z.Z.Z.h.9.E 5 5 5 > % % % % % % % % % % % % % % % % < 5 5 5 I q.B.Z.Z.Z.j.9.Q % % % % % : : , t >   ",
"o , t t r % % % % % % % 0 V.P.P.T.b.u.^ 8 9 9 7 7 7 7 7 % % % % % % % % 7 7 7 7 8 9 9 7 U i.Z.T.P.P.m.r./ % % % % % # : , u ,   ",
"o , t t r % % % % % % % 9 s.g.Z.T.Z.V.B.x.x.x.t./ / 8.W % % % % % % % q / / / 8.d.x.x.x.n.V.P.T.m.f.p.u./ % % % % % # : > u ,   ",
"o t u t r % % % % % % % 7 W Q j.N.n.n.n.n.n.n.q.W Q Q U % % % % % % % 0 Q Q Q Q h.N.n.n.n.n.n.N.q.W Q Q U % % % % % % , , u ,   ",
"o i a t r % % % % % % % % % 7 8.i.u.u.u.u.u.u.L % 7 7 % % % % % % % % % 7 7 7 7 8.i.u.u.u.u.u.u.L % 7 7 % % % % % % > t t u ,   ",
"o r u u t : % % % % % % % % % W / / / / / / / w % % % % % % % % % % % % % % % % W / / / / / / / w % % % % % % % # # , u t , #   ",
"o , t u u r r % % % % % % % % 8 8 8 8 8 8 8 8 % % % % % % % % % % % % % % % % % 8 8 8 8 8 8 8 8 % % % % % % % % # : , u t > #   ",
"o u u , , t r % % % % % % % % % % % % % % % % % % % % % % % % % % % % % % % % % % % % % % % % % % % % % % % % % : , , , r r :   ",
"o a i : : t r % % % % % % % % % % % % % % % % % % % % % % % % % % % % % % % % % % % % % % % % % % % % % % % % % : , , : , u ,   ",
"o u u : , t t % % % % % % % % % % % % % % % % % % % % % % % % % % % % % % % % % % % % % % % % % % % % % % % % % , r r , , t >   ",
"o t t , , u u > : # % % % % % % % % % % % % % % % % % % % % % % % % % % % % % % % % % % % % % % % % % % % % % # r u u t t r :   ",
"o , r > , t t , , % % % % % % % % % % % % % % % % % % % % % % % % % % % % % % % % % % % % % % % % % % % % % # , r t t t t u ,   ",
"X : > : : > , t u r , : % % % % % % % % % % % % % % % % % % % % % % % % % % % % % % % % % % % % % % % % % , e u , : , t t s t   ",
"X : , , , : : t u t t , % # # % % # % % % % % % % % % % % % % % % % % % % % % % % % % % % % # # % % % > , r t u , : , t t a r   ",
"o r u t t : > t u u t , : : : r r > % % % % % % % % % % % % % % % % % % % % % % % % % % % % : : , r u a u : > u , : , t t > @   ",
"o r t , r r r , , t t , : : : r t > % % % % % % % % % % % % % % % % % % % % % % % % % % % % : : r t u a u : > t r , t a u , # X "
};
