/* XPM */
static char *_c53222f21714e0d8e778baa37862b685dFYXDNugzvU7xn1[] = {
/* columns rows colors chars-per-pixel */
"64 64 186 2 ",
"   c #010101",
".  c #080706",
"X  c #090807",
"o  c #0B0A08",
"O  c #100F0D",
"+  c #1C1A17",
"@  c #161718",
"#  c #171819",
"$  c #1B1B1B",
"%  c #181715",
"&  c #2C190C",
"*  c #26180E",
"=  c #311706",
"-  c #341805",
";  c #311808",
":  c #231B14",
">  c #281A10",
",  c #221E1A",
"<  c #25211D",
"1  c #29241F",
"2  c #1C1D22",
"3  c #1C1F28",
"4  c #1D212C",
"5  c #1D2334",
"6  c #1E253A",
"7  c #252322",
"8  c #2B2621",
"9  c #2E2922",
"0  c #212429",
"q  c #29292D",
"w  c #312C25",
"e  c #342F28",
"r  c #36312A",
"t  c #3A342D",
"y  c #222737",
"u  c #3C3730",
"i  c #3E3931",
"p  c #3E373D",
"a  c #473A30",
"s  c #6F611F",
"d  c #796A1C",
"f  c #5A4638",
"g  c #5B473A",
"h  c #624D3F",
"j  c #1F2845",
"k  c #222944",
"l  c #222C4B",
"z  c #23314B",
"x  c #212D53",
"c  c #222F5A",
"v  c #23315C",
"b  c #273B5F",
"n  c #233262",
"m  c #24346B",
"M  c #273B68",
"N  c #253672",
"B  c #263A77",
"V  c #263A7C",
"C  c #293C76",
"Z  c #705543",
"A  c #785C49",
"S  c #6F5542",
"D  c #46496B",
"F  c #797978",
"G  c #50474F",
"H  c #8C750C",
"J  c #826D0D",
"K  c #8E6951",
"L  c #946D54",
"P  c #9D755B",
"I  c #88654E",
"U  c #AD7F5F",
"Y  c #997A6E",
"T  c #A47C62",
"R  c #A88B09",
"E  c #B49406",
"W  c #C6A304",
"Q  c #EABF00",
"!  c #EDC200",
"~  c #AB8168",
"^  c #B58463",
"/  c #B98765",
"(  c #B98867",
")  c #BC8A69",
"_  c #B88D71",
"`  c #C18F6E",
"'  c #CC946E",
"]  c #C69473",
"[  c #C99675",
"{  c #CD9A79",
"}  c #C49578",
"|  c #D59D79",
" . c #D99F7A",
".. c #DCA37D",
"X. c #273F8C",
"o. c #2A4586",
"O. c #2F5086",
"+. c #30548D",
"@. c #284295",
"#. c #29449D",
"$. c #28469E",
"%. c #2E5398",
"&. c #2A46A1",
"*. c #2C4BA5",
"=. c #2D4DA9",
"-. c #2E51AD",
";. c #2E51A0",
":. c #2F55B3",
">. c #3159B5",
",. c #325BBB",
"<. c #3057B4",
"1. c #345FA6",
"2. c #3765BC",
"3. c #4C6B8D",
"4. c #677295",
"5. c #656CA6",
"6. c #3664C5",
"7. c #3767C9",
"8. c #3769CC",
"9. c #386BCD",
"0. c #3968C5",
"q. c #3B72CD",
"w. c #396DD1",
"e. c #376FD6",
"r. c #3C73D5",
"t. c #3C74DA",
"y. c #3D79DE",
"u. c #3E7BE3",
"i. c #3D7DE9",
"p. c #4173D1",
"a. c #407EE5",
"s. c #407EE8",
"d. c #3F80EB",
"f. c #3F86F6",
"g. c #718CD0",
"h. c #4182ED",
"j. c #4A89EC",
"k. c #4481E6",
"l. c #4385F1",
"z. c #4C8DF2",
"x. c #4C8DF2",
"c. c #4788F0",
"v. c #5495F4",
"b. c #5A9AF4",
"n. c #508FEE",
"m. c #7597E0",
"M. c #6CA2E6",
"N. c #66A6F8",
"B. c #6FAEFA",
"V. c #69A8F8",
"C. c #63A2F7",
"Z. c #71AFFA",
"A. c #7AB8FC",
"S. c #7DBAFD",
"D. c #77B5FC",
"F. c #918F8E",
"G. c #989898",
"H. c #B98F80",
"J. c #B7ADA7",
"K. c #CC9D80",
"L. c #CEA285",
"P. c #DAA483",
"I. c #DBA788",
"U. c #D1A79B",
"Y. c #E6AE8C",
"T. c #E8B08F",
"R. c #E7B08F",
"E. c #F7BD9C",
"W. c #F8BE9D",
"Q. c #F2B895",
"!. c #EBB595",
"~. c #ECBBA7",
"^. c #F0BCA6",
"/. c #FCC09E",
"(. c #FCC4A3",
"). c #F7C1A2",
"_. c #80BEFE",
"`. c #84C1FF",
"'. c #86C3FF",
"]. c #84C1FF",
"[. c #FBDFD0",
"{. c #ECDFD7",
"}. c #F8E8DE",
"|. c #FDEDE4",
" X c #FEFEFE",
".X c #CDCDCD",
/* pixels */
"u r 9 8 , 8 e 9 , < 1 1 9 e 8 , , % 3._.M.@.@.t.h.h.h.h.h.h.h.h.h.h.h.h.-.@.@.@.4 $ , 1 1 e e , , , , 1 9 r t 9 , < 9 9 w 1 o   ",
"1 8 e 9 1 1 1 8 9 9 9 9 1 1 1 e 9 3 3.S.M.=.=.k.z.z.z.z.z.z.z.z.z.z.z.x.,.=.=.*.4 $ 1 9 8 1 1 e r 9 1 8 9 9 e 9 8 9 r r 1 , .   ",
"+ 1 e w 1 < , 1 e e 9 9 1 , , $ 0 V 2.z.j.u.a.B.A.A.A.A.A.A.A.A.A.A.A.A.j.u.u.t.y $ 7 w 8 , , t u e 9 9 9 9 9 9 9 e t t 1 + .   ",
"1 1 8 8 8 8 1 8 9 9 e r 1 , $ $ 4 @.6.l.h.l.l.A.`.`.`.`.`.`.`.`.`.`.`.`.b.h.l.k.y $ 8 r 9 , , e r w 9 9 9 9 9 8 1 8 r r 1 + .   ",
"e 1 , < e w 9 9 8 9 t t 7 $ y N V 8.n.B.B.B.B._.`.`.`.`.`.`.`.`.`.`.`.`.D.B.b.h.o.N k 7 1 , , 8 9 9 9 9 9 9 9 1 : , w w 1 , o   ",
"e 8 , 1 9 9 9 9 9 w r t 1 + k #.*.i.C.`.`.`.`.`.`.`.`.`.`.`.`.`.`.`.`.`.`.`.N.d.=.#.x + $ < 1 8 9 9 e 9 8 9 e 8 , 1 8 8 1 , .   ",
"9 9 w 9 1 8 9 e t t 8 1 k x V 6.0.b.Z.`.`.`.`.`.`.`.`.`.`.`.`.`.`.`.`.`.`.`.N.d.=.#.x + , 8 8 9 9 r t e + e t e 9 8 1 1 < + .   ",
"9 9 e 9 , 1 9 e t r $ $ m @.>.h.j.S.`.`.`.`.`.`.`.`.`.`.`.`.`.`.`.`.`.`.`.`.N.d.=.#.x + , 9 9 9 9 r t e + e t r 9 9 1 1 1 $ .   ",
", 8 e 9 , 8 9 8 1 1 $ $ N #.,.l.x._.`.`.`.`.`.`.`.`.`.`.`.`.`.`.`.`.`.`.`.`.N.d.=.#.x + 7 t r 9 9 9 w 9 8 r t 9 , < 9 9 9 1 o   ",
", 1 w 9 1 9 e 9 1 1 $ $ m #.,.l.x._.`.`.`.`.`.`.`.`.`.`.`.`.`.`.`.`.`.`.`.`.N.d.=.#.x + < r r 9 9 8 1 1 8 e r 9 1 8 9 9 9 1 O o ",
", 1 9 9 9 e t r 8 8 $ $ m #.,.l.x._.`.`.`.`.`.`.`.`.`.`.`.`.`.`.`.`.`.`.V.b.v.h.w.8.o.n l < < 1 1 , $ , < 8 9 e t r 9 9 1 , , 1 ",
"1 1 9 9 9 e r e 8 8 $ $ m #.,.l.x._.`.`.`.`.`.`.`.`.`.`.`.`.`.`.`.`.`.`.v.h.h.h.h.l.,.@.N + + $ $ $ $ $ , 8 9 e t r 9 9 1 1 8 9 ",
"8 1 , 1 w 9 1 1 , , $ $ m #.,.l.x._.`.`.`.`.`.`.`.`.`.`.`.`.`.`.`.`.`.`.C.b.b.b.b.b.p.,.%.M b l k 4 $ $ , e t e 9 e t t 9 8 1 , ",
"9 1 , < e 1 1 1 1 , $ $ m #.,.l.x._.`.`.`.`.`.`.`.`.`.`.`.`.`.`.`.`.`.`._._._._._._.b.i.s.u.y.@.@.j + $ , r t e 8 9 t t 9 9 1 $ ",
"r e 8 8 1 1 < 8 r e $ $ m #.,.l.x._.`.`.`.`.`.S.S.S.S.S.S.S.S.S.S.S.S.S.S.S.S.S.S.S.b.h.l.l.h.-.=.v 5 0 , r u e , 1 e e 9 8 9 e ",
"t r e 9 , , , 8 u u $ $ m #.,.l.x.S.`.`.`.`.`.b.z.z.z.z.z.z.z.z.z.z.z.z.z.z.z.z.z.z.c.h.h.h.h.u.u.r.q.+.$ r u 9 + , 9 9 9 8 r u ",
"t e 1 1 1 1 1 9 r e $ $ m #.,.l.x.S.`.`.`.`._.z.h.h.h.h.h.h.h.h.h.h.h.h.h.h.h.h.h.h.h.h.h.h.h.h.h.h.l.1.$ 8 e 8 1 1 e e 9 9 e r ",
"t 9 + , 9 e e w 9 9 $ $ m #.,.l.l.b.b.b.b.b.b.0.,.,.,.,.,.,.,.,.,.,.,.,.,.,.,.,.,.,.,.,.,.,.,.,.,.,.,.o.$ $ $ 1 9 e t t 9 9 9 9 ",
"r 9 < 1 9 9 9 9 9 8 $ $ m #.,.l.l.h.l.l.l.l.h.-.#.#.#.#.#.#.#.#.#.#.#.#.#.#.#.#.#.#.#.#.#.#.#.#.#.#.&.N $ , , 1 9 w r r 9 9 9 9 ",
"9 e t r 9 1 1 1 9 8 $ $ N #.-.9.w.h.y.9.9.9.8.V m m m m m m m m m m m m m m m m m m m m m m m m m m m l < 8 9 9 9 9 < < 8 9 9 9 ",
"9 w e e 9 1 , 1 9 9 $ $ m @.@.#.=.s.6.@.@.@.@.5 $ 7 7 7 7 7 7 7 7 7 7 7 q q 0 2 7 7 2 2 2 2 2 2 2 2 2 7 9 9 9 9 9 8 , , w r 9 1 ",
"9 9 9 9 9 1 , 1 9 9 8 8 y 6 v #.#.:.C 6 6 6 6 2 $ f L L P L K K K K K K J..XF $ A L a # , 8 8 1 1 1 1 8 9 9 9 9 9 8 , , r t 9 + ",
"9 8 1 1 9 8 8 8 9 9 8 8 , + l #.#.&.v + $ $ $ $ # Z / ( ] ( ^ ^ ^ ^ ^ ^ {. XG.+ P / f # $ 8 8 9 9 9 9 9 e 9 9 9 9 9 1 1 r t 9 $ ",
"e 8 , , 8 r t r 9 9 1 , 1 1 y c c c y * > > > $ # Z / ( ] | P.P.P.P.P.P.}. X.XF._ ` g # $ , , 8 9 9 9 e t 9 9 9 9 9 8 9 t t 9 , ",
"e 8 , < 9 e t r 9 9 1 , 8 e 8 $ $ $ > = = - - + # Z / ( ] R.E.E.E.E.E.E.|. X X XL.[ h # $ , < 9 9 9 9 e t 9 9 9 9 8 8 9 r t 9 , ",
"w 9 9 9 9 9 e 9 1 1 1 1 9 e 8 $ $ : & = - - - + # Z / ( ] T.W.E.E.E.E.E.[.|.|.}.L.[ h @ , 9 9 r t e 9 8 1 8 9 1 < 1 9 9 w e 8 < ",
"9 9 9 9 9 9 9 8 , , 1 1 9 e 8 $ $ ; - - - - - + # Z / ( ] T.W.E.E.E.E.E.).).).).{ [ h @ , 9 w t t e 9 1 , 8 w 1 , 1 9 9 9 9 1 1 ",
"9 9 9 9 w 8 1 1 9 9 8 8 1 1 , $ $ ; - - - - ; $ # Z / ( ] Y.Q.E.E.E.E.E.E.E.E.E.{ [ h # $ 1 1 w e 9 9 1 , e t 9 , 1 w w 8 1 1 1 ",
"9 9 9 9 e 1 , 1 e e 9 9 1 , 1 9 9 , & - ; : : $ # Z / ^ / [ { I.W.E.E.E.E.E.E.E.{ [ h # $ , , 8 9 9 9 8 , r u 9 + , e e 1 < 1 1 ",
"e 9 9 9 8 1 , 1 9 w e e 8 1 8 w 9 $ > - & $ $ $ # S / ^ ^ ` ] P.W.E.E.E.E.E.E.E.{ [ h # $ 1 1 9 9 9 9 8 1 e r 9 < 1 e e 1 < 1 8 ",
"t e 9 8 , , 1 1 8 9 t t e 8 9 9 9 8 , > : $ $ $ $ t f Z ^ ) ) [ P.P.P.P.P.P.P.P.Z h a 9 9 9 9 9 9 9 9 9 9 9 9 9 9 9 w e 1 1 8 e ",
"t e 9 8 1 1 1 1 8 9 r r e 9 9 9 9 9 1 $ $ $ $ 5 5 5 5 p L L L P T T T T T T T P w $ 9 t e 9 9 8 8 9 9 9 9 8 8 9 9 9 9 9 1 < 8 e ",
"9 9 9 9 t e 8 9 9 9 9 9 9 9 9 9 9 9 1 $ $ $ $ B X.X.X.N 9 9 9 w w w w w w w w 9 , $ 1 9 9 9 8 , , e u r 9 1 , 8 e 9 1 1 1 1 9 e ",
"9 8 1 8 e w 9 8 1 1 8 9 9 9 9 r e 9 1 $ $ $ $ o.*.&.&.V 2 2 2 $ $ $ $ $ $ $ $ $ 1 1 8 8 9 e e 8 1 8 9 9 9 1 , 1 8 8 8 8 8 8 1 1 ",
"9 1 , 1 9 9 9 8 , , 8 9 9 9 e u t 9 1 $ $ $ 2 2.r.9.6.<.B B B x $ $ $ $ $ $ , 1 9 9 9 1 9 t t e e 1 + 1 e 1 1 < , 1 e e 9 9 1 , ",
"e 8 , 1 e 9 9 8 < 1 w e 9 9 9 e e 9 1 $ $ $ 2 q.l.u.r.6.#.#.&.m $ $ $ $ $ $ < 9 9 9 w e e r r 9 8 1 1 1 9 8 1 1 1 1 9 9 e e 1 , ",
"u 9 + 1 t e 9 9 9 9 t t e 9 8 , , 7 , $ 3 c v O.O.2.u.r.,.*.#.m $ $ $ $ $ $ $ 1 1 1 7 8 8 9 9 , , 8 e 8 , 9 e w 9 9 8 8 t t 9 , ",
"u 9 , 1 t e 9 9 9 9 t t e 9 7 $ $ $ $ $ 5 @.@.5 % +.f.i.e.-.$.m $ $ $ $ $ $ $ $ $ $ $ $ , 9 9 , , 9 e 9 , 9 e w 9 9 9 9 r t 9 , ",
"w 9 8 8 9 9 9 8 , < 8 8 8 8 1 $ $ $ $ $ 5 @.@.G f 4.m.g.g.5.5.D $ $ $ $ $ $ $ $ $ $ $ $ $ 8 8 1 1 8 8 9 9 1 1 1 9 w t t w 9 9 8 ",
"9 9 9 9 9 9 9 8 $ $ $ $ $ $ $ $ $ $ $ $ 5 @.#.U.!.~.~.~.~.~.^.Y # $ $ $ $ $ $ $ $ $ $ $ $ $ $ $ $ $ $ 1 e 1 , 1 8 w t t 9 8 9 9 ",
"9 w e e 9 w e 9 $ $ $ $ $ $ $ $ $ $ $ $ 5 @.#.U.(./././././.(.~ # $ $ $ $ $ $ $ $ $ $ $ $ $ $ $ $ $ $ < 9 1 , 1 9 9 8 8 8 9 e r ",
"9 e r r 9 7 < , $ $ $ $ $ $ $ $ $ $ $ $ 5 #.#.H. .| | | |  ...K # $ $ $ $ $ $ $ $ $ $ $ $ $ $ $ $ $ $ $ , , , 1 9 8 $ $ 8 9 e t ",
"1 e t r 1 $ $ $ $ $ $ $ $ $ $ $ $ $ $ $ 4 m M ~ ' | P...' P I g $ $ $ $ $ $ $ $ $ $ $ $ $ $ $ $ $ $ $ $ $ $ $ 8 e e 1 1 8 9 e r ",
", 9 t r $ $ $ $ $ $ $ $ $ $ $ $ $ $ $ $ $ 2 7 ~ ' Y.(.Q.[ f , , $ $ $ $ $ $ $ $ $ $ $ $ $ $ $ $ $ $ $ $ $ $ $ 8 t r 9 9 9 9 9 9 ",
"8 9 e 9 $ $ $ $ $ $ $ $ $ $ $ $ $ $ $ $ $ $ $ L U } I.K.U a # $ $ $ $ $ $ $ $ $ $ $ $ $ $ $ $ $ $ $ $ $ $ $ $ 7 e w 9 9 9 9 8 1 ",
"e 9 9 8 $ $ $ $ $ $ $ $ $ $ $ $ $ $ $ $ $ $ $ w e t u t e < $ $ $ $ $ $ $ $ $ $ $ $ $ $ $ $ $ $ $ $ $ $ $ $ $ 1 9 9 9 9 9 9 8 1 ",
"1 8 9 8 $ $ $ $ $ $ $ $ $ $ $ $ $ $ $ $ $ $ $ $ , , , $ $ $ $ $ $ $ $ $ $ $ $ $ $ $ $ $ $ $ $ $ $ $ $ $ $ $ $ < 9 9 9 9 9 9 9 e ",
", , , , $ $ $ $ $ $ $ $ $ $ $ $ $ $ $ $ $ $ $ H R R R J $ c N N N N N N 5 $ $ $ $ $ $ $ $ $ $ $ $ $ $ $ $ $ $ $ , < 9 9 9 9 e t ",
"< , $ $ $ $ $ $ $ $ $ $ $ $ $ $ $ $ $ $ $ $ , W ! Q ! E $ N #.@.@.@.#.#.6 + $ $ $ $ $ $ $ $ $ $ $ $ $ $ $ $ $ $ $ $ 9 9 9 9 e t ",
"8 1 $ $ $ $ $ $ $ $ $ $ $ $ $ $ $ $ 6 c v M M d H H H s c ;.6.,.,.>.<.<.N c 6 $ $ $ $ $ $ $ $ $ $ $ $ $ $ $ $ $ $ $ 9 9 9 9 e t ",
"9 1 $ $ $ $ $ $ $ $ $ $ $ $ $ $ $ $ c @.*.6.2.y : : : y @.w.h.u.r.r.9.9.=.@.n $ $ $ $ $ $ $ $ $ $ $ $ $ $ $ $ $ $ $ 9 9 8 8 e r ",
"e 7 $ $ $ $ $ $ $ $ $ $ $ $ $ $ $ + c #.*.7.6.b l z z M -.t.l.h.u.y.r.r.-.#.n $ $ $ $ $ $ $ $ $ $ $ $ $ $ $ $ $ $ $ w w 1 1 8 e ",
"e 7 $ $ $ $ $ $ $ $ $ $ $ $ $ $ $ + c &.*.7.7.0.0.q.r.r.u.h.l.h.h.h.h.h.:.#.n $ $ $ $ $ $ $ $ $ $ $ $ $ $ $ $ $ $ $ e e 1 , 1 9 ",
"1 < $ $ $ $ $ $ $ $ $ $ $ $ $ $ $ $ c @.$.6.6.r.t.u.u.u.h.h.h.h.h.h.h.h.-.@.v $ $ $ $ $ $ $ $ $ $ $ $ $ $ $ $ $ $ < r r 9 8 9 9 ",
", 1 8 8 $ $ $ $ $ $ $ $ $ $ $ $ $ $ 4 6 x =.=.-.-.:.:.:.:.:.:.:.:.:.:.:.v 6 4 $ $ $ $ $ $ $ $ $ $ $ $ $ $ $ $ < 8 9 r r w 9 9 9 ",
"8 8 9 8 $ $ $ $ $ $ $ $ $ $ $ $ $ $ $ $ 4 m m m m m m m m m m m m m m m 5 $ $ $ $ $ $ $ $ $ $ $ $ $ $ $ $ $ $ 1 9 8 1 1 9 e 8 1 ",
"9 9 9 8 $ $ $ $ $ $ $ $ $ $ $ $ $ $ $ $ $ 2 2 2 2 2 2 2 2 2 2 2 2 2 2 2 $ $ $ $ $ $ $ $ $ $ $ $ $ $ $ $ $ $ $ 1 9 8 , , 9 e 1 , ",
"r e 9 8 $ $ $ $ $ $ $ $ $ $ $ $ $ $ $ $ $ $ $ $ $ $ $ $ $ $ $ $ $ $ $ $ $ $ $ $ $ $ $ $ $ $ $ $ $ $ $ $ $ $ $ 1 9 9 9 9 1 1 8 9 ",
"t e 9 8 , $ $ $ $ $ $ $ $ $ $ $ $ $ $ $ $ $ $ $ $ $ $ $ $ $ $ $ $ $ $ $ $ $ $ $ $ $ $ $ $ $ $ $ $ $ $ $ $ 7 8 9 9 9 e e 1 1 8 w ",
"e e 9 9 9 < $ $ $ $ $ $ $ $ $ $ $ $ $ $ $ $ $ $ $ $ $ $ $ $ $ $ $ $ $ $ $ $ $ $ $ $ $ $ $ $ $ $ $ $ $ $ $ 1 1 9 e 9 8 8 1 1 8 e ",
"9 9 9 w t 9 7 1 $ $ $ $ $ $ $ $ $ $ $ $ $ $ $ $ $ $ $ $ $ $ $ $ $ $ $ $ $ $ $ $ $ $ $ $ $ $ $ $ $ $ $ $ 7 1 , 8 e 9 , , 1 1 8 e ",
"9 8 8 9 t e 1 1 $ $ $ $ $ $ $ $ $ $ $ $ $ $ $ $ $ $ $ $ $ $ $ $ $ $ $ $ $ $ $ $ $ $ $ $ $ $ $ $ $ $ $ < 9 1 1 8 9 9 1 1 1 < 8 e ",
"e 8 , 1 u 9 , , < < < < 7 8 7 $ $ $ $ $ $ $ $ $ $ $ $ $ $ $ $ $ $ $ $ $ $ $ $ $ $ $ $ $ $ 8 8 < < $ $ < 9 9 9 1 1 1 9 9 1 , 8 w ",
"e 8 , 1 t 8 $ 1 9 9 8 8 r t 9 $ $ $ $ $ $ $ $ $ $ $ $ $ $ $ $ $ $ $ $ $ $ $ $ $ $ $ $ $ 7 t t 9 9 1 , 1 9 9 9 1 , 1 e e 1 , 8 9 "
};
