/* XPM */
static char *e9402ad416d34594c2433b04d9d6a2146RTJxZneAJR2TJxA[] = {
/* columns rows colors chars-per-pixel */
"64 64 195 2 ",
"   c #030302",
".  c #0E0C0A",
"X  c #100E0C",
"o  c #13110E",
"O  c #181613",
"+  c #1C1916",
"@  c #161718",
"#  c #17181A",
"$  c #1B1B1B",
"%  c #161717",
"&  c #2C190C",
"*  c #341805",
"=  c #301706",
"-  c #241A13",
";  c #221E1A",
":  c #25211D",
">  c #29241F",
",  c #2B2819",
"<  c #383216",
"1  c #312D17",
"2  c #1C1E23",
"3  c #1D1F29",
"4  c #1D212C",
"5  c #1F2021",
"6  c #1D2233",
"7  c #1E253A",
"8  c #252323",
"9  c #2B2621",
"0  c #2E2922",
"q  c #24242B",
"w  c #2A2A2B",
"e  c #312C25",
"r  c #332F28",
"t  c #36312A",
"y  c #3A352E",
"u  c #232737",
"i  c #3C3730",
"p  c #3E3932",
"a  c #313131",
"s  c #44362C",
"d  c #4B3B31",
"f  c #524612",
"g  c #78650F",
"h  c #554236",
"j  c #5A4639",
"k  c #58463A",
"l  c #484329",
"z  c #614C3E",
"x  c #1F2742",
"c  c #212B4D",
"v  c #222C46",
"b  c #212D54",
"n  c #232F5A",
"m  c #23325B",
"M  c #293657",
"N  c #2C3752",
"B  c #233263",
"V  c #24356E",
"C  c #283E6C",
"Z  c #243671",
"A  c #253876",
"S  c #263A7B",
"D  c #363D62",
"F  c #31425F",
"G  c #2A4577",
"H  c #2A436B",
"J  c #424C52",
"K  c #785B48",
"L  c #756059",
"P  c #7E676A",
"I  c #4D5873",
"U  c #857012",
"Y  c #89664E",
"T  c #856651",
"R  c #8F6A51",
"E  c #836758",
"W  c #916B52",
"Q  c #9B7257",
"!  c #9C755B",
"~  c #9B7E6A",
"^  c #A87F65",
"/  c #AB8E09",
"(  c #C9A504",
")  c #DDB501",
"_  c #E1B801",
"`  c #B68564",
"'  c #B98766",
"]  c #BB8A6A",
"[  c #BC9278",
"{  c #C18F6C",
"}  c #C9936D",
"|  c #C69473",
" . c #CB9674",
".. c #CA9877",
"X. c #CC9978",
"o. c #C2977F",
"O. c #D79E7A",
"+. c #D29A75",
"@. c #D1976F",
"#. c #D6A07E",
"$. c #DCA27C",
"%. c #273D85",
"&. c #273E8B",
"*. c #283F85",
"=. c #28408D",
"-. c #2F518E",
";. c #30548E",
":. c #284294",
">. c #29449C",
",. c #2A499B",
"<. c #2F549E",
"1. c #315493",
"2. c #2A46A0",
"3. c #2C4BA3",
"4. c #2948A6",
"5. c #2E51AD",
"6. c #2F52A5",
"7. c #325AA6",
"8. c #2F53B1",
"9. c #325AB5",
"0. c #335CBC",
"q. c #3157B4",
"w. c #3665B3",
"e. c #4F5EA4",
"r. c #3665C6",
"t. c #3767C9",
"y. c #3768CB",
"u. c #396BC7",
"i. c #396ED3",
"p. c #376DD3",
"a. c #3B71D5",
"s. c #3C75DC",
"d. c #3D78DF",
"f. c #3F7CE4",
"g. c #3D7AE4",
"h. c #4A74CB",
"j. c #407FE9",
"k. c #407DE6",
"l. c #897990",
"z. c #5C80CE",
"x. c #4B81DD",
"c. c #618BDE",
"v. c #4A84E4",
"b. c #4183ED",
"n. c #4889EF",
"m. c #4284F1",
"M. c #4285F0",
"N. c #4788F0",
"B. c #4488F5",
"V. c #488AF1",
"C. c #4B8DF1",
"Z. c #4F90F3",
"A. c #4F91F3",
"S. c #5B9BF5",
"D. c #599AF5",
"F. c #5192F3",
"G. c #609DF1",
"H. c #6290E5",
"J. c #63A3F7",
"K. c #6CABF9",
"L. c #64A4F8",
"P. c #75B3FB",
"I. c #76B4FB",
"U. c #78B6FC",
"Y. c #7CBAFD",
"T. c #7EBBFD",
"R. c #7EBCFE",
"E. c #9C889E",
"W. c #ABABAB",
"Q. c #B8B8B7",
"!. c #C69F85",
"~. c #DDA685",
"^. c #D6A789",
"/. c #D6AE93",
"(. c #E2AB89",
"). c #EEB594",
"_. c #E0B19B",
"`. c #F7BD9C",
"'. c #F8BE9D",
"]. c #F0B796",
"[. c #E3B9A9",
"{. c #FDC19F",
"}. c #FDC5A3",
"|. c #F9CBB1",
" X c #81BEFE",
".X c #84C1FF",
"XX c #85C2FF",
"oX c #86C3FF",
"OX c #84C1FF",
"+X c #C7C6C5",
"@X c #FADFCF",
"#X c #FBE0D1",
"$X c #FFFFFE",
"%X c gray97",
"&X c #ECECEC",
/* pixels */
"  o 9 9 : 9 e e : : : 9 0 0 0 9 : : r t : 7 5.5.5.5.v.A.Z.Z.Z.Z.Z.Z.Z.Z.Z.F.h.5.h.I.F 6 q > : : 9 t t 9 9 0 0 e 0 9 0 t t > +   ",
"  o e 9 + : e e : : ; > e e 0 0 ; ; t p 9 v f.f.f.k.K.T.T.T.T.T.T.T.T.T.T.R.G.f.b.n.3.&.v + + ; 9 p y 0 0 0 0 0 0 0 e y y : O   ",
"  X : > 9 9 > > 0 9 9 9 0 0 t r ; ; 0 r 8 b b.M.N.V.U..X.X.X.X.X.X.X.X.X.X.XK.N.N.n.q.3.b 2 2 ; : r e 0 0 0 0 0 9 : > r r : +   ",
"  . + : e 0 ; ; e e 0 0 > 0 y y ; ; $ + n ,.b.N.P.U. X.X.X.X.X.X.X.X.X.X.X.XT.U.I.P.v.g.6.%.b $ ; 0 0 0 0 0 0 0 > ; ; e e > +   ",
"  X : 9 e 0 > > 9 0 0 0 e e r e > : + $ V 8.b.n.R..X.X.X.X.X.X.X.X.X.X.X.X.X.X.X.XOXF.M.0.>.B $ ; 0 0 e e > 0 r e > > 9 9 : +   ",
"  o 9 0 0 e e 0 : > 0 e y y 0 9 9 9 $ $ V 8.b.V.R..X.X.X.X.X.X.X.X.X.X.X.X.X.X.X.X.XP.K.v.i.6.Z m ; : y y ; 9 y t e 0 : ; ; +   ",
"  o e 0 9 9 e e : > 0 e r e 9 0 e e ; $ V 8.b.V.R..X.X.X.X.X.X.X.X.X.X.X.X.X.X.X.X.X.X.XD.M.t.>.A $ $ t t : 0 y t 9 9 > : > +   ",
"  O y e ; : e e : 9 e 9 ; : 0 0 y y : + V 8.b.V.R..X.X.X.X.X.X.X.X.X.X.X.X.X.X.X.X.X.X.XD.M.t.>.A $ $ 0 0 0 e y e + ; e e e :   ",
"o ; e 0 ; : 0 0 9 e t e : : 9 9 0 0 q 6 S 0.b.N.P.U. X.X.X.X.X.X.X.X.X.X.X.X.X.X.X.X.X.XD.M.t.>.A $ + : : : 9 e e r e 0 0 > ; O ",
"9 0 0 9 ; : 0 0 0 t y 0 $ $ $ + + $ Z &.r.j.b.b.V.V.U..X.X.X.X.X.X.X.X.X.X.X.X.X.X.X.X.XD.M.t.>.A $ + ; ; ; : 0 e y y 0 0 : ; 9 ",
"0 0 0 0 > > : : 0 0 0 9 $ $ 2 2 4 4 =.3.a.V.N.N.N.N.U..X.X.X.X.X.X.X.X.X.X.X.X.X.X.X.X.XD.M.t.>.A $ $ 9 9 ; 9 t r e e t r 9 > > ",
"0 0 0 0 0 9 ; ; e 9 : ; $ 6 S *.w.u.a.s.G.U.P.P.P.I. X.X.X.X.X.X.X.X.X.X.X.X.X.X.X.X.X.XD.M.t.>.A $ $ e e ; 0 y t 0 0 y y 0 0 : ",
"e 0 : 9 e e > > 9 > : ; $ 7 >.3.j.M.b.b.K..XOXOXOXOXOXOXOXOXOXOXOXOXOXOXOXOX.X.X.X.X.X.XD.M.t.>.A $ $ e e ; 0 i t : > r r 0 0 9 ",
"i 9 + > y y e e : ; + N 7.w.i.i.b.b.b.M.F.D.D.D.D.D.D.D.D.D.D.D.D.D.D.D.D.D.K..X.X.X.X.XD.M.t.>.A $ $ e e ; 0 p t + ; 9 0 0 0 t ",
"t 9 ; 9 y t 9 9 : ; + H M.M.M.M.M.M.M.M.M.M.M.M.M.M.M.M.M.M.M.M.M.M.M.M.M.b.J..X.X.X.X.XD.M.t.>.A $ $ 0 0 : 0 t 0 : : e e 0 0 r ",
"0 0 0 e y t + ; 0 : + M t.r.r.r.t.r.r.r.r.r.r.r.r.r.r.r.r.r.r.r.r.r.r.r.r.r.x.L.J.J.J.J.Z.M.t.>.A $ + ; ; 0 9 ; : 0 e y y 0 0 0 ",
"9 9 0 e y r ; ; e : + c 2.2.2.2.2.2.2.2.2.2.2.2.2.2.2.2.2.2.2.2.2.2.2.2.2.>.r.N.M.M.M.b.M.M.t.>.A $ + ; ; e 9 ; : 0 e t t 0 0 0 ",
"; : : > 0 e t t 0 : + u Z V V V V V V V V V V V V V V V V Z V V V V V V V V ,.i.i.i.j.M.s.i.9.>.A $ $ 9 9 0 0 0 0 0 0 : : 9 0 0 ",
"0 0 > 9 0 0 r e 0 : ; ; 2 2 2 2 2 2 2 2 8 8 2 2 w w q 8 8 8 8 8 q q q 8 2 $ n >.>.>.s.b.0.2.>.:.Z + $ 0 0 0 0 0 0 0 0 ; ; e t 9 ",
"y t 0 0 0 0 0 0 0 : ; : 9 9 9 9 9 9 $ $ z K + w Q.+X~ R R R R W ! ! W W s $ 3 7 7 7 ,.8.3.>.V 7 u > 9 0 0 0 0 0 0 0 0 ; ; t y > ",
"y e > 9 0 0 > > 0 0 9 0 0 0 > 9 0 0 $ $ K Q $ a &X$X!.` ` ` ` ` | | ' ' h # $ $ $ $ S >.>.>.B + ; 0 0 0 0 e 0 0 0 0 0 : : y y 9 ",
"y 0 ; : e 0 ; ; 9 r y t 0 0 ; : e e ; $ T [ W.W.%X$X[.~.~.~.~.~...| ' ` h # - & & & u c c c 6 + ; 0 0 0 0 y t 0 0 0 0 0 0 y y 9 ",
"t 9 ; : e 0 : : 9 e y r 9 9 ; : e e ; $ T /.$X$X$X$X|.`.`.`.`.]...| ' ` h # - * * = + $ $ $ + : > e e 0 0 r e 0 0 9 9 0 0 t t > ",
"0 > ; : e 0 0 0 0 0 e 9 : : : : e e ; $ T ^.@X#X#X#X}.`.`.`.`.]...| ' ` h # - * * * & - + $ : 0 e y t 0 0 : > 0 9 : : 0 0 e e > ",
"0 > : > 0 0 0 0 0 0 0 9 : : : : 0 0 $ $ T #.`.`.`.`.`.`.`.`.'.`...| ' ` h # - * * * * * - $ : 0 e y t 0 0 ; > e 0 ; : 0 0 0 0 > ",
"0 0 0 0 0 0 0 0 e 9 : > 0 0 0 0 : ; + $ T #.`.`.`.`.`.`.`.`.].(.| { ` ` h # - & & * & & - : ; ; : 0 0 0 0 ; 0 i r ; : e e > : : ",
"9 0 0 0 0 0 0 0 e > ; > e e e 0 ; ; + $ T #.`.'.'.'.'.'.'.'.(.| ' ` ` ' h # + + - * - + : 0 : ; : 0 0 0 0 ; 0 p t ; : e e : : : ",
": 9 0 e t t 0 9 : : : > 0 e t t 9 9 ; + K ] ).).).).).).).).~.{ ` ` ! Q d $ $ $ - & ; $ 0 y e > 9 0 0 0 0 9 0 e 0 9 0 e e : : 9 ",
"; > 0 e y t 0 9 ; ; : > 0 e y y 0 0 9 9 0 h ..X.X.X.X.X.X.X.{ ` ` ` d 0 : $ $ $ + + > 9 t y r 0 0 0 0 0 0 0 0 0 0 0 0 e e : : 0 ",
"; 9 e e e e 0 0 e 0 > 9 0 0 e e 0 0 0 0 > e z z z z z z z z j j j j M B B V x $ $ $ ; : 0 e e 0 9 : > t t 0 9 : 9 e e > > : : 0 ",
": 9 0 0 0 0 9 9 t e 0 0 9 9 0 0 0 0 0 e 0 9 $ $ $ $ $ $ $ $ $ $ $ $ S >.:.>.B $ $ $ ; ; > 0 0 e 0 : : t t e > ; : 0 0 : : : : 9 ",
"e 9 : > 0 9 : : 0 0 0 9 ; : 0 0 0 0 t y e 9 : : + $ $ $ $ $ 6 b b b 3.q.0.r.G + $ $ 9 0 9 9 e y t 0 0 ; : e 9 : : : : 0 0 0 0 : ",
"e 9 ; > e 0 ; : 0 0 0 9 ; : 0 0 0 0 t y e 0 0 9 $ $ $ $ $ $ b >.:.:.r.a.f.B.;.O $ $ 9 e 0 0 e y t 0 0 ; ; 0 9 : : : : e e e e : ",
": : : 0 y t ; ; t e 0 0 9 0 t t 0 0 : : > > : ; + $ $ $ $ $ b 2.5.5.i.d.u.w.G x 6 $ : 9 0 0 0 0 9 : : 0 0 : > e 0 0 0 0 0 t y > ",
"; : : 0 p t ; ; y e 0 0 0 e y y 0 0 $ $ + + + $ $ $ $ $ $ $ b 4.y.p.f.M.G 2 m :.V $ + $ $ $ : 0 > ; : e e ; > e e 0 0 0 0 y y 9 ",
"9 : : 9 e e > > e 0 0 9 : : 0 0 9 9 $ $ $ $ $ $ $ $ $ $ $ $ N e.h.z.c.H.I s D 2.A $ $ $ $ $ : 9 9 : > 0 0 0 9 : > 0 0 t t e 0 9 ",
"0 > : > 0 0 0 0 0 0 0 : + + $ $ $ $ + $ $ $ $ $ $ $ $ $ $ % L [.[.[.[.[._.(.l.>.A $ $ $ $ $ + $ $ $ $ $ $ 0 9 ; : 0 0 y y 0 9 0 ",
"t 9 ; : 0 0 e e 0 0 r 9 $ $ $ $ $ $ $ $ $ $ $ $ $ $ $ $ $ @ E }.{.{.{.{.}.}.E.>.A $ $ $ $ $ $ $ $ $ $ $ + 0 9 ; : 0 0 9 9 0 0 e ",
"p 0 ; : 0 e t t 0 9 : ; $ $ $ $ $ $ $ $ $ $ $ $ $ $ $ $ $ @ K $.O.O.O.O.O.$.l.2.S $ $ $ $ $ $ $ $ $ $ $ $ $ ; ; : 0 0 ; ; 9 0 t ",
"e 0 > > > 0 y y 9 ; $ $ $ $ $ $ $ $ $ $ $ $ $ $ $ $ $ $ $ $ d Y { } $.(.+.@.P V b $ $ $ $ $ $ $ $ $ $ $ $ $ + + : r e : : 9 0 e ",
"; 9 e 9 ; : y t $ $ $ $ $ $ $ $ $ $ $ $ $ $ $ $ $ $ $ $ $ $ $ e ]  .`.}.(.@.K # $ $ $ $ $ $ $ $ $ $ $ $ $ $ $ $ 8 y t 0 0 0 0 0 ",
"0 0 0 0 0 0 0 0 $ $ $ $ $ $ $ $ $ $ $ $ $ $ $ $ $ $ $ $ $ $ $ 8 R Q [ o.^ Q z $ $ $ $ $ $ $ $ $ $ $ $ $ $ $ $ $ : e e 0 0 0 0 9 ",
"e 0 0 0 e e 0 9 $ $ $ $ $ $ $ $ $ $ $ $ $ $ $ $ $ $ $ $ $ $ $ + 9 9 0 w 9 9 : $ $ $ $ $ $ $ $ $ $ $ $ $ $ $ $ $ ; 0 0 0 0 0 0 9 ",
": 9 e 9 : : 9 9 $ $ $ $ $ $ $ $ $ $ $ $ $ $ $ $ $ $ 4 4 4 4 4 4 $ $ 1 < < < , $ $ $ $ $ $ $ $ $ $ $ $ $ $ $ $ $ $ 9 9 0 0 0 0 e ",
"; 9 e 9 ; ; $ $ $ $ $ $ $ $ $ $ $ $ $ $ $ $ $ $ $ $ Z &.%.%.%.S 2 + / ( ( ( g # $ $ $ $ $ $ $ $ $ $ $ $ $ $ $ $ + $ ; 0 0 0 0 t ",
": 9 e 0 > : $ $ $ $ $ $ $ $ $ $ $ $ $ $ $ $ $ $ 2 2 %.2.2.2.3.:.4 5 / _ ) _ U 2 2 2 $ $ $ $ $ $ $ $ $ $ $ $ $ $ $ $ $ 9 0 0 0 t ",
": 9 e 0 0 9 $ $ $ $ $ $ $ $ $ $ $ $ $ $ $ $ $ 2 Z S q.r.r.y.i.i.%.S l f f f J <.-.S 4 $ $ $ $ $ $ $ $ $ $ $ $ $ $ $ $ 9 0 0 0 r ",
": > 9 0 e 9 $ $ $ $ $ $ $ $ $ $ $ $ $ $ $ $ $ 2 :.>.r.i.a.s.f.j.3.>.7 $ $ $ C y.0.:.6 $ $ $ $ $ $ $ $ $ $ $ $ $ $ $ $ 0 0 9 > e ",
"; : : 9 e 0 $ $ $ $ $ $ $ $ $ $ $ $ $ $ $ $ $ 2 :.>.i.f.f.f.b.b.i.y.7.1.1.-.7.y.0.:.6 $ $ $ $ $ $ $ $ $ $ $ $ $ $ $ $ e e : ; 9 ",
": : : 9 0 9 $ $ $ $ $ $ $ $ $ $ $ $ $ $ $ $ $ 2 :.>.s.M.M.M.M.M.M.M.b.j.f.d.a.y.0.>.6 $ $ $ $ $ $ $ $ $ $ $ $ $ $ $ $ e e > : 0 ",
"e 0 0 9 ; : 8 : + $ $ $ $ $ $ $ $ $ $ $ $ $ $ 2 m B 9.y.y.y.y.y.y.y.t.r.r.r.0.9.,.B 4 $ $ $ $ $ $ $ $ $ $ $ $ $ $ : 9 y y e 0 e ",
"0 e t e > 9 0 0 $ $ $ $ $ $ $ $ $ $ $ $ $ $ $ $ $ 2 A =.=.=.=.=.=.=.=.=.=.=.=.=.V $ $ $ $ $ $ $ $ $ $ $ $ $ $ $ ; 0 0 9 9 0 e 9 ",
"0 r y t 0 0 0 9 $ $ $ $ $ $ $ $ $ $ $ $ $ $ $ $ $ $ 4 6 6 6 6 6 6 6 6 6 6 6 6 6 4 $ $ $ $ $ $ $ $ $ $ $ $ $ $ $ ; 0 9 ; ; 0 e : ",
"> 0 r r r e 0 9 $ $ $ $ $ $ $ $ $ $ $ $ $ $ $ $ $ $ $ $ $ $ $ $ $ $ $ $ $ $ $ $ $ $ $ $ $ $ $ $ $ $ $ $ $ $ $ $ ; 0 0 > > 9 9 9 ",
"; > 0 e y t 0 9 ; + $ $ $ $ $ $ $ $ $ $ $ $ $ $ $ $ $ $ $ $ $ $ $ $ $ $ $ $ $ $ $ $ $ $ $ $ $ $ $ $ $ $ $ $ ; 9 9 0 0 e e : : 0 ",
"; > 0 e t r 0 0 9 : $ $ $ $ $ $ $ $ $ $ $ $ $ $ $ $ $ $ $ $ $ $ $ $ $ $ $ $ $ $ $ $ $ $ $ $ $ $ $ $ $ $ $ $ : > 9 e 0 0 9 : : 0 ",
"; 9 e 0 0 0 0 0 y 0 : : $ $ $ $ $ $ $ $ $ $ $ $ $ $ $ $ $ $ $ $ $ $ $ $ $ $ $ $ $ $ $ $ $ $ $ $ $ $ $ $ $ : : ; > e e : : : : 0 ",
"; > 0 0 0 0 9 9 y e > : $ $ $ $ $ $ $ $ $ $ $ $ $ $ $ $ $ $ $ $ $ $ $ $ $ $ $ $ $ $ $ $ $ $ $ $ $ $ $ $ + 9 9 : > 0 0 : : : : 0 ",
"; : : 9 e 0 ; : y 0 ; ; : : : : 9 9 $ $ $ $ $ $ $ $ $ $ $ $ $ $ $ $ $ $ $ $ $ $ $ $ $ $ $ $ : 9 9 : : + + 0 0 0 9 : : 0 0 : ; 9 ",
": : : 9 e 0 ; : y 0 ; : 0 0 9 0 t y : $ $ $ $ $ $ $ $ $ $ $ $ $ $ $ $ $ $ $ $ $ $ $ $ $ $ $ 9 y t 0 9 ; ; 0 0 0 9 : : e e : : 9 ",
"0 0 0 > : : 0 0 : > 9 e y t 0 0 0 0 : ; $ $ : ; + $ $ $ $ $ $ $ $ $ $ $ $ $ $ $ $ ; 8 8 : $ 9 e 0 0 0 ; ; 0 9 ; : 0 0 y y 0 0 0 ",
"e e e 9 ; : e e ; > 0 e y t 0 0 0 0 0 0 : : 0 0 $ $ + + $ $ $ $ $ $ + + + + $ $ ; 0 t t 0 9 9 0 0 0 0 : : 0 > + : 0 e y y e 0 e ",
"0 e y e > 9 0 0 9 0 0 0 9 9 0 0 0 0 0 0 0 9 0 0 r r 9 9 ; + : 0 r r 9 9 9 9 9 9 9 0 9 9 9 0 0 0 0 0 0 9 9 0 0 r e 0 0 9 9 0 e 9 ",
"0 e t e 0 0 0 0 0 0 0 > ; : e e 9 > 0 e 0 0 e e t t e 0 : ; : 0 t t 0 0 0 0 0 0 0 0 : ; 9 e 0 > 9 e e 0 0 0 e t r 0 0 ; ; 9 0 > "
};
