/* XPM */
static char *_4dbecb105b44680f7f269a87fda540cgfdp4rc4ebFXzdu7[] = {
/* columns rows colors chars-per-pixel */
"64 64 189 2 ",
"   c #060605",
".  c #080706",
"X  c #0A0907",
"o  c #0B0A09",
"O  c #161615",
"+  c #191613",
"@  c #1B1916",
"#  c #16171C",
"$  c #17181A",
"%  c #1B1B1B",
"&  c #2A190D",
"*  c #321907",
"=  c #331A08",
"-  c #361906",
";  c #211A16",
":  c #221E1B",
">  c #2B1C11",
",  c #25211D",
"<  c #29241E",
"1  c #2E291B",
"2  c #39281B",
"3  c #393317",
"4  c #3D3518",
"5  c #1C1D22",
"6  c #1C1F2A",
"7  c #231E20",
"8  c #1D212C",
"9  c #1D2333",
"0  c #1F253B",
"q  c #252321",
"w  c #2B2621",
"e  c #2E2923",
"r  c #23252D",
"t  c #312C25",
"y  c #332E28",
"u  c #3B2D24",
"i  c #36312A",
"p  c #3A332C",
"a  c #242737",
"s  c #363432",
"d  c #4C2F1B",
"f  c #442A17",
"g  c #512E15",
"h  c #463C17",
"j  c #59341A",
"k  c #613A1F",
"l  c #42362E",
"z  c #443C26",
"x  c #463930",
"c  c #4A3D35",
"v  c #433730",
"b  c #6D5D11",
"n  c #60551F",
"m  c #6D5C0F",
"M  c #7B6514",
"N  c #5E483A",
"B  c #624B3C",
"V  c #774F34",
"C  c #714B31",
"Z  c #1F2741",
"A  c #1F2845",
"S  c #202945",
"D  c #202A4A",
"F  c #232E54",
"G  c #222E58",
"H  c #23315D",
"J  c #263A5A",
"K  c #2A3D5A",
"L  c #27354E",
"P  c #233262",
"I  c #24356D",
"U  c #283965",
"Y  c #243670",
"T  c #253975",
"R  c #263A7C",
"E  c #2D405B",
"W  c #384B5E",
"Q  c #2C4979",
"!  c #4D4248",
"~  c #785A46",
"^  c #89720C",
"/  c #907218",
"(  c #8A5F43",
")  c #86624A",
"_  c #8A6852",
"`  c #936D54",
"'  c #9C755B",
"]  c #9B7257",
"[  c #94674A",
"{  c #AA7D5E",
"}  c #A4785B",
"|  c #9D7963",
" . c #A77E64",
".. c #AF9108",
"X. c #C9A504",
"o. c #E5BB00",
"O. c #E9BF00",
"+. c #ECC100",
"@. c #AC8267",
"#. c #B58464",
"$. c #B88665",
"%. c #BD8C6B",
"&. c #B98868",
"*. c #BE9071",
"=. c #B28A72",
"-. c #C08E6D",
";. c #C3916F",
":. c #C69473",
">. c #C99A7B",
",. c #CA9775",
"<. c #D29E7E",
"1. c #C38F70",
"2. c #263C82",
"3. c #273E8A",
"4. c #283F8D",
"5. c #28408E",
"6. c #284194",
"7. c #29449D",
"8. c #274196",
"9. c #325185",
"0. c #2A46A1",
"q. c #2B4AA4",
"w. c #2D4EAA",
"e. c #2E51A4",
"r. c #2E51AC",
"t. c #3357AB",
"y. c #3157B2",
"u. c #325BB5",
"i. c #325BBA",
"p. c #3051AA",
"a. c #3964B8",
"s. c #4672BE",
"d. c #476DBC",
"f. c #3562C4",
"g. c #376ACD",
"h. c #396DD1",
"j. c #376BD0",
"k. c #3C74DC",
"l. c #3F7BE4",
"z. c #3F7FE8",
"x. c #4979CF",
"c. c #407EE7",
"v. c #5187DF",
"b. c #4283ED",
"n. c #4B88E9",
"m. c #5893E9",
"M. c #4385F0",
"N. c #4C8DF2",
"B. c #4688F0",
"V. c #4E91F6",
"C. c #5596F4",
"Z. c #5D9DF6",
"A. c #6599E0",
"S. c #62A1F7",
"D. c #68A7F8",
"F. c #6CABF9",
"G. c #64A3F6",
"H. c #70AEFA",
"J. c #74B1FA",
"K. c #78B6FC",
"L. c #7DBBFE",
"P. c #79B4F6",
"I. c #8C8B8A",
"U. c #AA968A",
"Y. c #ADA39C",
"T. c #B0B1B1",
"R. c #B6ABA4",
"E. c #DCA787",
"W. c #D5B29C",
"Q. c #E2AB8A",
"!. c #E8B08F",
"~. c #E4B396",
"^. c #F7BC9B",
"/. c #F8BE9D",
"(. c #F1B795",
"). c #FEC29F",
"_. c #FACBB1",
"`. c #F9CAAF",
"'. c #81BEFD",
"]. c #84C1FF",
"[. c #85C2FF",
"{. c #84C1FF",
"}. c #C0C0C0",
"|. c #DFDFDF",
" X c #E9D9CF",
".X c #FCDDCB",
"XX c #EDDCD2",
"oX c #FEFEFE",
"OX c #F1F1F1",
/* pixels */
"  , e e e < < y p y w w w e e e e e e e e e w w < r Z Z Z Z Z Z Z Z Z Z Z Z q , , w w e w : < e e e e e e e e e e e e w e i p t ",
"  , e e e < < y p y w e e e e e t e e e t t % % % 0 6.6.6.6.6.6.6.6.6.6.6.6.0 + % % , t e : < e e t t e e t t e e e e w e p p t ",
"  : e e e y i e , , , < t t t w , w t e , , 8 8 8 D w.w.w.w.t.t.q.7.w.w.w.w.D 8 8 8 r y t : w t w , w t e , , w e e e i i t e + ",
"  : e e e i p w @ : : , t t t w : < t e % 5 R 4.3.e.l.l.l.c.F.P.d.w.l.l.l.l.e.3.4.6.U % % : w t w : , t e : : w e e t p p e , . ",
"  : e e e i p e < < w w t w w , , < e w 5 6 6.0.7.u.B.B.b.M.J.'.s.w.b.b.B.B.u.7.0.0.T 5 5 , < w , , , t e < < y t , < y y e , . ",
"  : e e e i i t e e e t t , : , , , % r R 2.h.k.k.n.J.F.B.b.d.a.e.r.b.B.F.J.n.k.k.k.a.R I 5 : : , , , e e e e p y @ : e e e < . ",
"  , e < < t y e < e t e w < < < < , @ 9 8.0.l.M.b.C.].L.B.b.r.8.8.r.b.B.L.].C.b.b.M.h.7.2.% , < < < w e e e e t e , , w w e < . ",
"  , e : : e t < : < t e : e t w : a I R g.h.G.F.F.J.].'.F.F.x.g.g.x.F.F.'.].J.F.F.F.m.j.a.I a , < e e e e e e , , t e : , w < o ",
"  + , e e t t < : < e e e e e r 0 U y.i.C.C.L.].].].].].].].Z.C.C.Z.].].].].].].].].J.C.n.u.U 0 r w w , , e e e e t e : : e < o ",
"  + : t t t t < : < e e e , % H 6.y.c.n.L.L.].].].].].].].].'.L.L.'.].].].].].].].].'.'.J.b.y.6.H % % : , e e t t e e : : e < o ",
"  : w < < t t < : , < < e : @ P 7.i.M.N.].].].].].].].].].].].].].].].].].].].].].].].].K.B.i.7.P @ % : : t t < w t t w w e , . ",
"  , t , , e t < : , , , e : @ P 7.i.M.N.'.].].].].].].].].].].].].].].].].].].].].].].].K.B.i.7.P @ % : : t t , , t t e e w , . ",
"  : w , , < w w w w w w e : @ P 7.i.M.N.'.].].].].].].].].].].].].].].].].].].].].].].].K.B.i.7.P @ % , < t t w w w w e e t e o ",
"  + : : : : : w t t e e e : @ P 7.i.M.N.'.].].].].].].].].].].].].].].].].].].].].].].].K.B.i.7.P @ : e e e e t w : , e e p i o ",
"  @ < < < , : w t t e e w % @ P 7.i.M.N.'.].].].].].].].].].].].].].].].].].].].].].].].K.B.i.7.P @ , t t w w t w : , e e t w o ",
"  , t t t , : w t t e w : % @ P 7.i.M.N.'.].].].].].].].].].].].].].].].].].].].].].].].K.B.i.7.P @ q p p : : e w : , e e : @   ",
"  , t e e < , w e e e w : % @ P 7.i.M.N.'.].].].].].].].].].].].].].].].].].].].].].].].K.B.i.7.P @ q p i : : e e , < t t , @ . ",
"  : e , , e t < : < e w : % @ P 7.i.M.N.].].].].].L.D.D.D.D.D.D.D.D.D.D.D.D.L.].].].].].K.B.i.7.P @ : t e , : e e e t p p e , . ",
"  : e , , e t , : < t e , % @ H 6.y.z.n.L.L.L.L.L.H.N.N.N.N.N.N.N.N.N.N.N.N.H.L.L.L.L.L.J.b.y.6.H @ : e e , , w e e t p p e , . ",
". w i w w , : < e t p i w % @ 6 9 H w.u.N.N.N.N.N.Z.K.K.K.K.K.K.K.K.K.K.K.K.Z.N.N.N.N.N.n.r.H 9 6 @ : e e w w , < t t < < , : . ",
"  < y e e e e e e e e e e : @ % + D 7.w.b.b.b.b.b.C.].].].].].].].].].].].].C.b.b.b.b.M.l.0.D + @ @ % , < t y w < w < , , e w o ",
"  : e e e p p t e < : , e : @ @ @ D 7.w.b.B.F.F.F.F.C.C.C.C.C.C.C.C.C.C.C.C.F.F.F.H.Z.M.l.0.D @ @ @ @ @ : p p t w : : : , p i o ",
"  , t e e i i t e < : , t : % % @ D 7.w.b.B.L.].].J.M.M.M.M.M.M.M.M.M.M.M.M.J.].].].F.M.l.0.D @ % % % : , p p e < , , , < i t o ",
". e p e e e e e e < : , t : % % @ D 7.w.b.b.Z.S.S.m.f.f.f.f.f.f.f.f.f.f.f.f.m.S.S.S.Z.M.l.0.D @ % % : e t p p , , t t t t e < o ",
". w i e e e e e e w , < t : % % @ D 7.r.b.M.M.M.B.k.7.7.7.7.7.7.7.7.7.7.7.7.k.B.M.M.M.M.l.0.D % % % : e e i p , < t t e e e < . ",
"  + , e e w q < , , , , , % % % @ D 7.q.j.h.h.h.h.u.I I I I I I I I I I I I u.h.h.h.h.h.f.7.D % % % % : , q q e w q q , , w < . ",
"  + : e e % @ @ @ @ @ @ @ % @ @ @ D 0.7.0.0.0.0.q.R 5 5 5 5 5 5 5 5 5 5 5 5 R q.0.0.0.0.0.0.D % @ % @ @ @ @ @ @ @ @ @ : : w < o ",
"  + : t y i p p p v c c l q @ @ @ 0 2.2.2.2.2.2.2.P ; ; ; ; ; ; ; ; ; ; ; ; P 2.2.2.2.2.2.2.a @ @ @ q l l c c p p p y : : e < o ",
"  + : % , _ { } } :.!.E.&.v @ @ @ % 6 6 8 8 8 8 8 7 * * = = = = = = = = * * 7 8 8 8 8 8 6 6 % @ @ @ v &.*.E.Q.#.} { _ % % e < o ",
"  @ < % % } ;.-.%.E./.^.Q.' ~ x @ ; & 2 _ _  .U.T.I.; t Y.R.=.#.#.=.R.Y.t ; I.T.U.@.| _ ~ > ; @ v ~ ' Q.!././.>.-.;.} % % e < o ",
"  : e % %  .,.:.:.E./././.:.$.B $ ; * d :.,.(..XoX}.O s OXoX`.^.^.`.oXOXs O }.oX.X/.!.,.@.- ; $ B $.:././././.<.:.,. .% % w , . ",
"  , e % % ' -.%.%.>.Q.Q.Q.-.$.B $ ; & 2 [ [ !..XoX|.I.I.oXoX`.^.^.`.oXoXI.I.|.oX.X/.<.[ V > ; $ B $.-.Q.Q.Q.E.:.%.-.' % @ : % . ",
"  , e % % ] &.$.$.%.:.:.:.%.&.B O @ @ : j k Q..XoXoXoXoXoXoX`././.`.oXoXoXoXoXoX.X).1.j d % @ O B &.%.:.:.:.:.&.$.&.] % @ , : . ",
"  , e % : ~ ) ) ) ' ;.-.-.` ) ! A A A a f d #.W.XX XXXXXXXXX~.Q.Q.~.XXXXXXXX X XW.:.` f u S A A ! ) ` -.-.-.%.` ) ) ~ : % e < o ",
"  , t , , , , , : B $.#.#.c : H 8.6.6.R % : j ) %.*.>.>.>.>.%.$.$.%.>.>.>.>.*.%.( j d % r 6.6.8.H : c #.#.#.#.l : , , : , e w o ",
"  , t , , % % % $ N $.#.#.l O P 0.7.7.2.% % f V } { ;.;.;.;.#.#.#.#.;.;.;.;.{ } V f 2 @ 9 8.7.0.P O l #.#.#.#.i @ @ % , , e < o ",
"  , t , , e e , $ N $.#.#.l + P 0.7.7.2.% @ % 2 k V #.#.#.#.#.#.#.#.#.#.#.$.V k 2 : % @ 9 8.7.0.P @ l #.#.#.#.i @ : : , , w < . ",
"  , t , , e t , $ N  .{ { l + H 6.6.6.R % @ 5 2 g C { { { { { { { { { { { { C g 2 5 5 @ 8 5.6.6.H + l { { { { i , y e : : w , o ",
"  , t : : e e , : w p i i , @ 8 0 0 0 9 % 5 T F : < i i p p p p i i i i p p < : F 2.H @ 5 0 0 0 8 @ , i i i i , w s p % % w , . ",
"  w i < < e t < : : @ @ @ @ @ @ % % % @ @ 5 5.P @ % % % % % % % % % % % % % % % P 0.Y @ @ @ @ @ @ @ @ @ @ @ @ , w e e , , t e o ",
". w p e e e t < , , w , @ @ % % @ @ @ % % 5 6.3.Y Y I I I I I I I I I I I I Y Y 3.0.Y @ @ @ @ @ % % % % % : : e w : , e e i t o ",
"  @ < t t < , w t e w , @ @ % % @ 1 h 3 % 5 I R T 2.7.7.q.q.7.7.7.7.q.q.7.7.2.R R R G @ , 4 < % % @ % % % , , e e w e e e , : . ",
"  + : t t , : w t w % % % @ @ @ @ h / M % % 5 5 5 S 7.0.i.i.q.7.7.0.i.i.0.7.S 5 5 5 5 $ 1 / h @ @ @ @ @ % % % w e e e e e : @   ",
"  + , < < w w e e , @ @ % 6 8 8 6 z / M 3 3 3 1 @ 0 3.5.e.e.6.3.3.5.e.e.5.3.0 @ 1 3 3 3 h / z 6 8 8 6 @ % % @ < w e e e e : @ . ",
"  @ , , , e t , % % @ @ % I 4.3.4.U 1 h X.X.X.M $ 5 8 8 9 9 8 8 8 8 9 9 8 8 5 # M X.X.X...1 U 4.3.4.I @ @ @ @ % , e e e e : @   ",
"  : w , , , , % % @ @ @ % R 0.7.0.I @ 4 o.O.+.^ # @ @ @ @ @ @ @ @ @ @ @ @ @ % # ^ +.O.+.X.: I 0.7.0.R @ @ @ @ @ , e e e e < : . ",
"  , t , : : % % % % @ @ @ R 7.7.7.I @ 4 o.O.+.^ # @ @ @ @ @ % % % % @ @ @ @ @ # ^ +.O.O.X.: I 0.7.7.R % % % @ @ , e e e e e < . ",
"  , t < , : : % % % @ @ % R 0.7.7.I @ 4 o.O.+.^ # @ @ @ @ @ @ % % @ @ @ @ @ @ # ^ +.O.O.X., I 7.7.0.R % % % @ @ , e e w w e < o ",
"  : e e e : % % % % @ 8 I u.h.j.h.t.I K b b b h @ @ % @ % % % % % % @ @ @ % % % h b b m n U t.h.j.h.u.I P 5 @ @ % , , : , e < o ",
"  : e e e % @ @ % % @ 0 7.k.M.b.M.h.7.2.@ + + @ @ @ @ @ @ @ % % % % @ % @ @ @ @ @ + + + 8 8.h.M.b.b.k.7.5.6 @ @ % % % : : e < o ",
"  : e e e % @ @ % % @ 0 7.v.S.Z.S.m.x.s.Q Q Q U F F F D 5 % % % % % % 5 D F F F U Q Q Q 9.x.m.S.Z.S.v.7.5.6 @ @ % % % : : e w o ",
"  , e e e % @ @ % % @ 0 5.A.L.L.L.L.'.J.b.b.l.i.3.3.4.R 5 % % % % % % 5 R 4.3.3.i.l.l.b.N.'.L.L.L.L.A.5.2.5 @ @ % @ % : : t w o ",
". w p e e % % % % % % 5 9 s.V.N.N.S.].K.B.b.u.T 8 9 9 9 % % @ @ % % % % 9 9 9 8 T w.f.M.N.].S.N.N.V.x.9 8 % % % @ @ % w e t w o ",
"  < y e e % % % % @ @ % @ a.b.b.z.C.'.P.b.c.q.H @ % @ @ % @ @ @ % % % % % % @ @ H 8.u.b.n.'.C.z.b.b.a.% @ @ % % @ @ % t t w , . ",
"  : e t t w q % @ @ @ @ @ L J J J E W W J J S 8 @ % % % % % @ @ % % % % % % @ @ 8 Z D J K W E J J J L % % @ % % % : , t t , @ . ",
"  , t w w e e , @ @ @ % % % @ @ @ @ @ @ @ @ @ @ % % % % % % % % % % % @ @ @ @ @ @ @ @ @ @ @ @ @ @ @ % % % @ @ % % , , e e < : . ",
". e p : : w e , @ @ @ @ % % % % @ @ @ @ % % % % % @ @ @ % % % % % % % % % % % % % @ @ @ % % % % @ @ @ @ @ % % % % , , , , e w o ",
". w i : : w e , @ @ @ @ % % % % @ @ @ @ % % % % % % % @ % % % % @ @ % % % % % % @ @ % @ % % % % @ @ @ @ @ @ % % : < , , , e w o ",
"  , t , , e t , % % @ @ @ @ @ % % % @ % % % @ @ % % % % % % % @ % % % @ % % % % % % % % % % % @ % % @ @ @ @ % % , t t e e e , . ",
"  , e , , e t < , : @ @ @ @ % % % % % % % % % @ % % % % % % % @ % % % % % % % @ % % % % % % % @ % % % % @ @ @ : < t t e e e , . ",
"  @ , , , , , w e w : % % @ % % % % % % % % @ @ % % % % % % @ @ % % % % % % @ @ % % % % % % @ @ % % % % % : : w w , < e e i t o ",
"  + , : : : : w t e e w @ % % @ % % % % % % @ @ % % @ @ % % % % @ % % % % % @ @ % % % % % % @ @ % % @ @ % w e t w : , e e p y o ",
"  : e e e , : w t t e w : : : , w , % % % % % @ % @ @ @ % % % % @ % % @ % % % % % @ @ @ % % % : , q w y e , , e w : , e e w , . ",
"  , t e e < , w e e e w : : : < e q @ @ % % % % % % @ @ % % % % @ @ % @ % % % % % % @ @ % % : : , e t p i : : e e , < t t , % o "
};
