/* XPM */
static char *_071b88ac3534ce9d2671d366c954112x2dEPJ2AVGmBjxb9[] = {
/* columns rows colors chars-per-pixel */
"64 64 241 2 ",
"   c #010101",
".  c #13110E",
"X  c #151311",
"o  c #1A1714",
"O  c #1C1915",
"+  c #1E1C1B",
"@  c #221E1A",
"#  c #25211D",
"$  c #29241F",
"%  c #191D29",
"&  c #181E34",
"*  c #211F20",
"=  c #1D212D",
"-  c #1C2233",
";  c #1C253C",
":  c #1D273D",
">  c #252324",
",  c #2A2622",
"<  c #2E2923",
"1  c #23252B",
"2  c #27282C",
"3  c #2B2A2A",
"4  c #312C25",
"5  c #332F29",
"6  c #36312B",
"7  c #39342D",
"8  c #222632",
"9  c #252934",
"0  c #262B37",
"q  c #222A3C",
"w  c #2A303D",
"e  c #3B3731",
"r  c #1D2745",
"t  c #1E2944",
"y  c #1B2653",
"u  c #232D44",
"i  c #222D4B",
"p  c #293246",
"a  c #26324C",
"s  c #29344D",
"d  c #212C56",
"f  c #263354",
"g  c #293653",
"h  c #2C3955",
"j  c #26325B",
"k  c #2A365C",
"l  c #2D3B5C",
"z  c #303B54",
"x  c #313E5B",
"c  c #2D3D63",
"v  c #263268",
"b  c #293769",
"n  c #303D63",
"m  c #323E6D",
"M  c #2D3C73",
"N  c #29387A",
"B  c #34415E",
"V  c #2F4063",
"C  c #344363",
"Z  c #34446B",
"A  c #384869",
"S  c #3B4A6D",
"D  c #344473",
"F  c #3C4D73",
"G  c #364678",
"H  c #3B4C7B",
"J  c #3F5175",
"K  c #3E517B",
"L  c #404E73",
"P  c #415274",
"I  c #42547C",
"U  c #46597E",
"Y  c #0E2D94",
"T  c #173899",
"R  c #2B3C85",
"E  c #233E97",
"W  c #173EA2",
"Q  c #1D439D",
"!  c #3A4B83",
"~  c #374988",
"^  c #3D5184",
"/  c #3C528C",
"(  c #2D4691",
")  c #394D95",
"_  c #3C5397",
"`  c #1947A6",
"'  c #1853AF",
"]  c #2249A6",
"[  c #2654A9",
"{  c #3C59A9",
"}  c #245CB3",
"|  c #1D67BB",
" . c #2667B8",
".. c #336AB8",
"X. c #3374BC",
"o. c #425583",
"O. c #475B85",
"+. c #42558A",
"@. c #465A8C",
"#. c #495D8D",
"$. c #435693",
"%. c #455B94",
"&. c #445B9C",
"*. c #4D6184",
"=. c #4C628B",
"-. c #4B6294",
";. c #4C649B",
":. c #566D97",
">. c #536698",
",. c #546B9C",
"<. c #445DA3",
"1. c #4B65A6",
"2. c #536BA2",
"3. c #536BA8",
"4. c #5974AA",
"5. c #496CB4",
"6. c #516EB1",
"7. c #4975B7",
"8. c #5877B5",
"9. c #5C7CBA",
"0. c #627BAA",
"q. c #617DB6",
"w. c #2C75C4",
"e. c #2B79C3",
"r. c #467EC2",
"t. c #5C82BF",
"y. c #6B86B1",
"u. c #6483BC",
"i. c #6885B9",
"p. c #2C83C6",
"a. c #3889C8",
"s. c #3B93CC",
"d. c #3C9AD0",
"f. c #448AC8",
"g. c #5A88C6",
"h. c #4B94CD",
"j. c #4598CC",
"k. c #5997CC",
"l. c #4D8AD2",
"z. c #489AD1",
"x. c #5497D4",
"c. c #539DD3",
"v. c #5B9CD2",
"b. c #638AC5",
"n. c #6B8CC4",
"m. c #718EC2",
"M. c #6493CB",
"N. c #6A93CB",
"B. c #6998CB",
"V. c #7697C9",
"C. c #739ACD",
"Z. c #639CD1",
"A. c #6699D5",
"S. c #6C9CD2",
"D. c #759CD1",
"F. c #4BA1CD",
"G. c #58A4CE",
"H. c #4AA2D2",
"J. c #52A3D5",
"K. c #5CA4D4",
"L. c #5CABD5",
"P. c #57A8D8",
"I. c #5DACDA",
"U. c #5DB3D7",
"Y. c #5CB2DA",
"T. c #65A1CE",
"R. c #78A1CE",
"E. c #64A3D3",
"W. c #69A4D6",
"Q. c #64ABD6",
"!. c #6BACD6",
"~. c #64ACD9",
"^. c #6CABDA",
"/. c #74A3D3",
"(. c #7AA4D4",
"). c #73ABD6",
"_. c #74ADDB",
"`. c #79A8D8",
"'. c #7BACDA",
"]. c #65B5D8",
"[. c #63B3DC",
"{. c #6CB4DC",
"}. c #6DBCDE",
"|. c #75B4D7",
" X c #74B4DC",
".X c #7CB4DB",
"XX c #74BBDE",
"oX c #7CBCDE",
"OX c #5EB5E0",
"+X c #72ACE0",
"@X c #68B6E1",
"#X c #6ABCE1",
"$X c #76B7E0",
"%X c #74BCE1",
"&X c #7DBCE1",
"*X c #6DC1DE",
"=X c #7AC2DC",
"-X c #74C4E3",
";X c #7BC4E3",
":X c #7CCAE5",
">X c #78CFE8",
",X c #88A6CF",
"<X c #83AAD5",
"1X c #88A8D2",
"2X c #83ACDA",
"3X c #84B4DC",
"4X c #8AB6DA",
"5X c #84BCDE",
"6X c #8BBBDC",
"7X c #94B9DB",
"8X c #86BCE2",
"9X c #96BEE1",
"0X c #84C2DE",
"qX c #8CC3DE",
"wX c #97C5DE",
"eX c #A6C7DF",
"rX c #84C4E3",
"tX c #8DC4E2",
"yX c #84CBE4",
"uX c #8BCBE4",
"iX c #87CCE9",
"pX c #93C5E2",
"aX c #99C7E3",
"sX c #94CBE3",
"dX c #9BCDE4",
"fX c #8BD2E6",
"gX c #85D6E8",
"hX c #8CD3E9",
"jX c #94D3E5",
"kX c #9BD4E5",
"lX c #98DAE8",
"zX c #A4CCE3",
"xX c #BBCFE1",
"cX c #A4D3E5",
"vX c #A7DAE7",
"bX c #A3DBE8",
"nX c #B3DCE7",
"mX c #B6DDE8",
"MX c #92E2E9",
"NX c #B1E1E7",
"BX c #C1DCE6",
/* pixels */
", 5 6 , , # @ , 4 , , , # # 4 4 # # $ > 3 3 , > - ; t t f C l B h a t ; ; i - , 3 9 9 , # # 4 5 , $ , , # @ , 4 , # # , $ $ # $ ",
", , , , , # # , 4 , @ @ , , 7 6 , , 9 q ; - 1 u g A I F S J J =.O.C s s g h u q u f t - 2 < 6 7 4 , 4 4 # @ , , 4 4 , # , 4 4 , ",
", , , , , # # , 4 , @ # , , 6 6 < 1 ; - - q g C J =.=.O.O.=.F S J A x A A h h s a c f - q q 9 7 5 , 4 4 # # , , , 4 , @ , 4 4 4 ",
", , , , , , , , , 4 6 6 , , # > 8 ; r i c H K -.4.y.#.o.o.J O.#.>.O.P O.P x l k s C S k f i - ; w < # # , 4 , , , , , # $ , 4 7 ",
", , , , , , , , , 4 e 6 , , % - r r k / _ / ^ -.,.2.@.o.#.,.4.6.8.n.,.o.F n M M f Z $.&.G j ; ; r = * @ , 4 4 4 , , , # $ , 4 7 ",
"6 , $ 6 6 , , 4 6 5 4 < < 1 - i i k H %.&.#.#.-.O.I @.#.4.n.n.u.g.D.N.4.,.=.H G D D ^ ) R M c k d t 8 > < 4 , # # # # $ , , , 4 ",
"7 $ # 7 7 , , 6 e 5 , , 1 ; a a u h o.#.2.4.0.2.>.4.4.;.1.q.b.V.C.'.(.m.m.V.y.@.1.4.H M M ~ H +.^ M u 2 < < > @ @ # # , , 4 , , ",
"7 # # 7 7 , , 4 5 3 , > 9 l C p h A I U ,.,.4.m.,X,Xu.V.N.N.C.D.7XzX8X.X/.(.7X,Xm.q.O.D M ( ! -.;.c f i 9 2 > , , $ $ , , $ , , ",
"7 $ # 7 7 , , , > 2 8 s f A C s A F O.y.i.i.m.n.V.C.V.6X5X)._.3X<X<X'._.Z.M.'.1Xi.0.0.0.+.~ ~ ;.;.G C c h - 1 5 6 , , , $ @ # , ",
"7 $ # 6 6 , , 1 q a s H G l x C O.=.:.i.V.9XD.V.(.C.(.2X.X_.XXiXfX|.B.M.b.g.M.(.1X1X<XN.4.2.) ) ^ Z F Z l u 9 1 3 , , < $ # # 4 ",
"4 $ $ , , 4 4 1 a c F I S x S O.0.y.V.D.7XzX,XD.R.'.tX5X'./..XyXyX_.M.M./.).M..XcX9X9X<Xn.N.6.{ ~ m H Z J l q - > # # , , , 4 7 ",
", $ # , , > < = r k S C C Z L >.i.1XD.D.<X7X<XC./.C.|.;X5X4X4X4X2X'.S..X&XrX). XyX5XsX8X3XD.b.6.) D D H G h f u 9 # # , , , 4 7 ",
"# # # 4 < % & ; f l Z G @.$.#.n.(.3XC.D.2X<X2X|.oX).XX8XkXbXdXtXaXzX7XzXsX5X X).XXZ.!.8XsX8XD.b.2./ G G n C n h a # @ , $ @ # < ",
"# $ , 4 < - ; a l C o.+./ $.3.(.3X`.(.3X3XaX5X.XsXuXfXkXnXbXjXkXvXdX9X9XcXvXrXXX!.v.g.M./.'.`.'.n.1.! m G J F Z g 1 > 4 , # $ , ",
"# , 4 , 2 ; u l n Z +.<.&.1.q.(./.M./.aX6XtXtXaXkXlXbXbXvXmXcXvXmXdX8XzXBXmXkXuX XQ.T.g.g.M.'.8X4Xu.$.! $.;.;.J l - = 6 4 , , , ",
"# , 4 , 1 - u a c D / <.q.C.C.6X/.M.).tXcXaXsXvXkXkXkXuXrXaXtXtXaX8X&XzXxXzXdXlXyX;X;X].Z.Z.+X8XtX'.9.3.t.6.1.,.J u - 3 < , , , ",
"# , , @ = ; u f m D $.8.6XpXaXtX).M.).cXvXcXsXpX5X XXX X^.Q.v.x.v.^. X_.'.).pXdXyXhXjX;XK.~.%X&XrXtXN.9.8.<.1.,.J F p 1 > , , @ ",
"# , , @ = u f D _ <.u.(.tXcX6XC.W.S.5XdXkXcXdXpXXXW.~. X0X XL.c.J.K.W.^.!.).2X4XpXkXbXvX|.~.{.^.XXsX'.D.i./ ! ^ S C q 1 , < , @ ",
", $ $ 3 s Z D / 8.b.`.8X8X8XN.M.^.5XlXfXuXuXjXkX&X^.).^.{.}.[.I.P.I.~.~.{.W.g.N.7XcXvXmXjX%XXX X$X#X8X4Xu.2.H K C p q - 3 6 5 , ",
", # @ p O.H ! $.8.N./.'.&X.XZ. XXXgXlXlXjXlXyXrX5X X3X^.I.Y.~.Q.v.v.v.K. X{.x.g.b..XdXnXvXjXuXrX%X@XrXdXC.8.-.O.P A n a 9 6 7 4 ",
"6 # > h O.S Z ;.8.g.`.8XdXfX_.-X>XyXjXkXkXkX;X X XE.Q.!.!.Q..X X).k.h.v.E.!.[.I.g.Z.rXsXnXvXlXyX{.-XiXvX8XN.4.@.I I Z h 9 < < $ ",
"e 2 q C I S G 3.6.r.`.8XkXMX:X:XyXjXkXuX5X6X.X~.J.c.K.!.E.E.S.Z./.T.h.v.v.Z.Q.}.K.Z.XXuXmXmXlXfX%X-XiXkXtX`.q.+.K o.C u 8 , $ @ ",
"6 q f Z =.=.o.$.3.b.'.tXjXhXgXgXlXbXkXoX^.W.!.!.K.K.T.v.h.a.a.f.f.k.k.h.h.v.E.!.[.I.K.&XnXmXjX>X-X@X-XiX8X2Xn.@.@.>.C u ; 9 , # ",
"9 ; f A =.0.,.&.u.N.3XiXrX X-XhXNXvXqX_.!.W.L.!.!.K.k.f.e.w.w.w. ...r.f.a.j.x.v.L.}.{.{.nXnXyX-X#X~.[.@X8X2XC.q.+.#.F l a u < , ",
"u t a l P ,.2.3.9.D..X.X).XXhXvXNXcX6X_.L.].[.~.E.k.f.w. . . .} } } ....X.s.s.h.c.K.oXoXwXdXqXrX:X-X].!./.2XD.n.;.;.J F B u 3 6 ",
"= ; s h x I 2.t.C.C.B.M.Z.rXkXnXvXtX4X^.~.XX[.c.h.f.e.w. .' [ ` ` [ [ ] } a.z.f.h.c.}.0XoXqXwXwX:X>XgXrXS.S.2XD.4.@.S C C u 3 6 ",
"> - g C B C ^ n.(.B.M.).XX;XuXvXbXrX.X{.oXXXJ.a.a.e.| ' ` T T T Q ] Q Q [ X.j.j.c.L.}.:XoXqXwXqX:X>X:X{.)./.N.n.2.D D B x p < 5 ",
"2 u a C A A I V.'.M.g. XuXyXuXlXlXtX X[.XXK.h.f.a.e.' Y Y T ] ` ` T T E )  .s.F.E.Q.#X#X}..X7XtXgXgX-X{.oX(.u.8.@.H ^ C l p 3 < ",
"9 a q B P F ;.m.D.A.g.E.;X;XyXhXlXoX[.[.}.x.h.j.a. .T Y T ] { .. .[ E E Q } j.G.E.K.Y.[.XX).3XsXMXMXyX%XrX6XV.i.2.;.@.S O.C 2 , ",
"8 ; q J U I 4.u.M.^.^.Z.!.;XhXhXlX=XI.Y.Y.h.z.z.e.] Y T ] ..r.k.j...] T T } j.U.Q.H.Y.}.=X|.5XjXgXlX-X%XrXtXD.N.n.9.%.S =.C 2 < ",
"1 = u P *.O.4.u./._.;X{.k.;XlXlXlXqXI.I.J.j.H.H.X.Q T ` [ X.h.=X].p.} T Q  .j.L.U.L.[.}.XX|.6XkXhXiX:XrXhX&XS.V.u.u.@.x x q 1 , ",
"2 1 q F :.:.8.u.n.).yX-X^.yXbXlXuX0X{.I.c.f.z.d...] T W [  .e.j.d.X.' W `  .j.G.U.].|.}.!.'.5XwXjXhXhXjXkXtX/.i.6.&.@.S l - 1 + ",
"> 8 ; B P P 1.9.q.M.W.W. XkXNXbXyXXX[.Y.J.a.z.d. .] E T W [  .|  .} ` W '  .a.c.U.Q.!.}.).`.|.qXlXlXhXdX6X<X<Xu.5./ S F g - = + ",
"@ > - z A B %.8.8.u.M.W. XuXvXlX:X{.~.[.Y.j.s.z.X.' Q Y Y T ` ` ] ] ` ` ' | f.F.L.K.L.Y.E.E.W.qXlXhXhXsX2XN.<X(.6.$.Z x g ; 1 , ",
", > u C x F 2.6.9.B.W.$X~.;XbXjXuX0XA.E.{.z.a.j.a.| ` Y Y Y T Y T ` ' ` '  .f.k.K.K.L.Y.c.x.^.aXsX%X X&X8X).R.u._ ~ c h A p > , ",
"e 2 u s C =.4.3.n.5XXX;X{.-XuXbXkX0XW.^.oXL.f.a.j.p.' T Y Y Y T ` ` ` Q [ X.g.E.Q.c.J.[.E.).7XaXsXXXZ.!.XX5XeXi._ N k s s ; - * ",
"7 > - h S =.;.2.V.tX&XtX&X~.}.fXyXXXqX6XXX{.k.a.j.H.p.} T Y Y Y T T Q [ 5.f.G.I.c.c.I.I.!..X4X6XjXyX X{.!.).7Xb.) v b s - - - > ",
", , p n C I o.2.u.'.uXrXW.v.~.*XyXjXwXqX.X{.~.h.a.z.z.a. .T Y T ` ..X.f.G.P.L.J.c.I.{.~.W.3X7X.X&X XXX X/.N.9.5.( N M h u 2 5 < ",
"> , p h p z Z %.9.N..XrXE.x.I.[.XXtXqXqX|.^.[.].c.f.s.s.p. .[ '  .a.F.J.U.U.J.c.v.[.%X].].3X4X/.^. X&X.X/.S.5.5.( v D Z k 9 6 , ",
"# , 9 u q B G G q.'.D.).~.%X@X@X[.5XqX0X!.^.[.XX[.c.s.s.a.p.p.e.p.a.s.H.J.L.J.j.c.#X-X;X&X6X.X{. X^.'.8X_.g.5.<.N M D c a - 3 # ",
"@ 2 1 = u C K H ;.n.n.S.$X;X#XI.K.qXwX X.X5XXX-X[.I.J.J.z.s.s.j.z.j.s.j.h.v.c.c.@X-XfXfX.X'.W.k.oX X_.tXpXS.5.R ~ $.G c ; 8 3 @ ",
"# 3 2 % ; l ^ o.+.&.8.S.W.%X%Xv.h. X0X5XsXtXoX;X#XOXP.P.P.H.f.h.h.z.c.c.l.l.x.~.@XuXwX0X^.E.M.7.g.E._.pX6XM.1.G b k k a = 3 < @ ",
"# < 1 - - g G H +.~ %.8.b.&X^.g.E.{.;XtXkXuX{.{. X{.~.x.x.~.c.c.[.I.P.x.x.c.I.$XrXsXwXoX{.!.Z.g.7.Z.3X<Xg.g.1.G b r r u 2 , $ @ ",
"$ , 1 u ; a Z C G m D 2.9.C.N.g.XX:X:XtXsXsXoX{.5X X_.A.l.A._.A.~.{.XX X3X X{.5XaXdXtXXXXXoXQ.Z.g.g.(.N.<._ ~ v d & - 9 < , , # ",
", # @ q - q D D D n ! %.4.b.N.).{.Q.}.;XrXjX;XXXrX X XW.A.3XzX3X X5XqX6XwXaXkXjXkXkXyXXX{.!.}.E.g.S.b.6.1.~ N v y & * 2 4 , , , ",
"4 # # 9 - % k G S o./ H o.0.R.).k.k.L.~.-XyX}.;XuXrXrXpX8XaXcXsXdXcXvXjXkXkXmXmXnXkXXXL.G.g.T.B.u.i.9.<.8.%.b i r % > 2 < , , , ",
"7 < , < > > q k x O.1./ G >.i.S.S. X#XI.{.*X[.;XhXyXuXkXvXkXhXhXiXkXvXjXuXjXvXkXfX:X*X}.{.E.9.8.4.$.! ! K n i i & 1 3 < $ # # , ",
"5 < , , , 1 - 8 l S -.~ ! >.i.C.D.&X{.K.~.].I.[.-X*X}.-XyXjXjXfXjXyX:X:X:XyXuX;X:X-X:XgXyX;XZ.7.{ ~ n k k f i t - 3 5 < $ @ # < ",
", , , , , > = 3 p Z n M ^ H %.0.m.N.W.E.E.K.L.[.c.H.U.#X#X-X;X-XyX:X>X:XgX-X{.XXyX;X;XyXoXE.g.5.) m k f Z Z f f 1 , , 4 $ @ # 4 ",
", , , 4 4 , 2 9 2 q ; f m n Z #.,.0.b.Z.). X!.T.E.[.}.:X%X~.].{.:X-X-X}.{.!.!.;XyX$X_.8X).g.1.<.H n S l S C f t > , , 4 , $ $ , ",
", , < 7 7 , , 1 2 9 i r b G D Z S >.4.k.g.M.Q.).|.rXjXhX Xk.Z.{.%XXXQ.Q.E.k.k.E.5X5X(.2X<X6.<.%.H H H k k t - % , , , , 4 4 , # ",
", , < 7 7 , , , , 2 a u i c D m S G I 1.6.9.t.Z./.8XtXrX&X).B.).XXXX).M.M./.<Xb./.4Xn.9.8.1.1./ ~ ! c i r r - = , , , , 4 4 , # ",
"7 4 , # # , , $ # > 9 ; i k k j Z n k n o.#.4.M.M..XtX4X.X XB.n./.'.M.b.b.m.V.8.C.V.1._ %.1.&./ D f i r - 1 , , , , , , , # # # ",
"7 4 , @ @ , , # @ # < 8 - t i i j j j v l F 2.g.g.g.'.4X2X`.b.9.i.i.i.V.8.<.1.&.i.6.( N R %.@.D n u & % = > , , , , , , $ @ # # ",
"4 4 , @ @ 6 7 , @ # 4 < > % r t j v v v G F I =.1._ 1.2.4.i.8.&.$.@.q.4.&.) ) ~ ~ ( R N b +.K i q 1 > $ > , 4 6 < @ # 6 < $ $ # ",
", , , @ @ 7 e , @ # 4 < > = % ; i c b M ^ C P F F G H +.-.2.2./ D D @.H ! H G H b m Z n i f i ; = 2 2 , , , 6 e 4 O @ 7 5 , , # ",
", , , # $ 5 6 , $ , 4 4 # > , q t f f u a g A F S J S P O.,.i.,.P C B C S B s C C C g q ; - - - 1 2 3 4 , , 4 6 < # # 5 5 5 4 @ ",
", , , , , , , , , , 4 , # # < 3 % 1 9 - = q a s x J A A F F =.I F J x h x x a p p g i = 2 , + + > < 7 7 , , , , , , , , 5 e 5 @ ",
"@ 6 6 , , # # , 4 , # # # # , , @ # < < , 1 - - ; a h C S C l l Z J Z C C C V a 1 9 8 3 7 6 , , , , , , 4 4 $ @ # # # , $ # $ < ",
"@ 6 7 , , # @ , 5 , @ @ # # , , @ # < 4 < > 1 = - u a a a f f u t ; h l s f f q 2 < , 4 7 7 , , , , , , 4 4 # @ @ @ # , # O # 4 ",
", , , 4 < # # # $ , , , , , $ , 5 5 , , , , , > > 3 9 r r ; & % % & ; 9 3 - - - 2 , , < 4 4 4 , , , $ $ 6 6 , $ $ , , , , , , < ",
"4 # # 4 4 $ # # @ , 4 4 4 4 # , e e < , , , , , , < 6 w 1 % % = % 1 , < < % @ , < 4 4 < , , 4 4 , , $ $ 7 e 5 , , , , , 4 4 4 , ",
"O X X O O X X X X X O O O O X o # @ O o o o o o o O @ @ O . X X X o o O O X X o O O O O o o O O O o o o @ @ O o O o o o O O O @ ",
"                                                                                                                              . "
};
