/* XPM */
static char *_e57cf36b140436bdf7da5f59adbc698aETHY49lanVXm98y[] = {
/* columns rows colors chars-per-pixel */
"64 64 201 2 ",
"   c #060605",
".  c #080706",
"X  c #0E0C0B",
"o  c #080807",
"O  c #110F0C",
"+  c #12100E",
"@  c #161412",
"#  c #191613",
"$  c #1C1A16",
"%  c #16171B",
"&  c #171819",
"*  c #1B1B1B",
"=  c #171816",
"-  c #271609",
";  c #2B190C",
":  c #311909",
">  c #221E1B",
",  c #241C16",
"<  c #25211D",
"1  c #29241E",
"2  c #2C2818",
"3  c #362A17",
"4  c #363017",
"5  c #35311C",
"6  c #1C1D22",
"7  c #1C1F28",
"8  c #1C2026",
"9  c #1E222D",
"0  c #1E2434",
"q  c #1E2438",
"w  c #252322",
"e  c #2B2621",
"r  c #2E2923",
"t  c #27272D",
"y  c #312C25",
"u  c #342E28",
"i  c #382F29",
"p  c #36312A",
"a  c #39342D",
"s  c #313027",
"d  c #252932",
"f  c #3C3935",
"g  c #442814",
"h  c #512F17",
"j  c #433918",
"k  c #573117",
"l  c #43362D",
"z  c #47362A",
"x  c #463A32",
"c  c #493A31",
"v  c #553B29",
"b  c #643E25",
"n  c #5A4D13",
"m  c #614F19",
"M  c #675516",
"N  c #7A670E",
"B  c #7D690E",
"V  c #5A4638",
"C  c #524238",
"Z  c #68432A",
"A  c #634A3A",
"S  c #754E35",
"D  c #1F2742",
"F  c #1C2749",
"G  c #1D284A",
"H  c #1F2844",
"J  c #202A4B",
"K  c #202944",
"L  c #212D54",
"P  c #222F5A",
"I  c #22305F",
"U  c #35384C",
"Y  c #233263",
"T  c #24346B",
"R  c #293B6B",
"E  c #243772",
"W  c #263975",
"Q  c #25397B",
"!  c #283E7C",
"~  c #283C73",
"^  c #484644",
"/  c #565250",
"(  c #6A5242",
")  c #675244",
"_  c #7A5C47",
"`  c #7C5D48",
"'  c #765946",
"]  c #7E614E",
"[  c #626262",
"{  c #937713",
"}  c #82573A",
"|  c #896955",
" . c #9B7359",
".. c #92674A",
"X. c #AB7D5E",
"o. c #9F7B66",
"O. c #A37B60",
"+. c #9C820A",
"@. c #BD9C07",
"#. c #C8A404",
"$. c #DBB401",
"%. c #E9BE00",
"&. c #E4BB00",
"*. c #EDC200",
"=. c #B48463",
"-. c #B88665",
";. c #BA8867",
":. c #BB8B6A",
">. c #AA846E",
",. c #C08E6D",
"<. c #C59372",
"1. c #CD9A7A",
"2. c #C99574",
"3. c #D49E7E",
"4. c #C08F70",
"5. c #D4A07F",
"6. c #263C83",
"7. c #273F8C",
"8. c #283F8D",
"9. c #28408E",
"0. c #284084",
"q. c #284193",
"w. c #29449C",
"e. c #2C4B97",
"r. c #2F528A",
"t. c #2946A1",
"y. c #2C4BA5",
"u. c #2D4EAA",
"i. c #2E52AE",
"p. c #3158A9",
"a. c #2F53B1",
"s. c #3057B4",
"d. c #325CBB",
"f. c #3259B3",
"g. c #396CBD",
"h. c #3769B9",
"j. c #3562AC",
"k. c #4469B9",
"l. c #3563C5",
"z. c #3666C8",
"x. c #3B6CCC",
"c. c #386AC5",
"v. c #3A6ED3",
"b. c #3C75DB",
"n. c #3C71D4",
"m. c #3E7AE2",
"M. c #3E7BE4",
"N. c #447CDC",
"B. c #4778C0",
"V. c #427FE5",
"C. c #3F81EE",
"Z. c #5584CA",
"A. c #5787D6",
"S. c #5E91DE",
"D. c #6897CE",
"F. c #4183ED",
"G. c #4685EA",
"H. c #4385F1",
"J. c #4688F2",
"K. c #4B8CF2",
"L. c #468BF8",
"P. c #5696F3",
"I. c #5798F4",
"U. c #5C9CF5",
"Y. c #5899F8",
"T. c #518EEA",
"R. c #669CE4",
"E. c #619EF3",
"W. c #63A2F7",
"Q. c #6DACFA",
"!. c #6AA7F5",
"~. c #71ADF6",
"^. c #74B3FB",
"/. c #79B7FC",
"(. c #7DBAFD",
"). c #6EA3E7",
"_. c #A1A1A0",
"`. c #DAA584",
"'. c #CDAA92",
"]. c #D6B39B",
"[. c #EAB393",
"{. c #F5BB99",
"}. c #F9BE9D",
"|. c #F1B897",
" X c #E7AF8E",
".X c #F9D2BC",
"XX c #F3C6AC",
"oX c #81BEFE",
"OX c #80BEFE",
"+X c #84C1FF",
"@X c #86C3FF",
"#X c #84C1FF",
"$X c #8AC8FF",
"%X c #DADAD9",
"&X c #C6C6C6",
"*X c #F6D7C5",
"=X c #FBE5D8",
"-X c #E9E7E6",
";X c #FEFDFC",
":X c #F4F3F3",
">X c #F1EFED",
/* pixels */
"  < r r r 1 1 u a p r r r r r r y y r r y y > * * 0 7.8.8.8.8.8.8.9.8.8.8.9.J $ * * < r r > 1 r r y y r r y y r r r r e e p a p ",
"  > r r r r y r r r 1 e r r r r e e r r e e * * $ 0 w.w.w.w.w.w.w.w.w.w.w.w.L $ * * > u y > 1 r r e e r r e e e r r r y y u u 1 ",
"  > r r r p a e $ > > 1 y y y e > 1 y r * * I E T 0.v.v.v.v.A.R.k.t.x.v.v.v.e.T E E Y w w > 1 y r > 1 y y 1 > 1 r r r a a y e + ",
"  > r r r p a r > 1 1 1 y r r 1 > 1 y r $ * 6.w.w.u.F.F.F.F.^.$XZ.t.F.F.F.H.d.w.w.w.6.$ $ > 1 r e < 1 r y 1 < e y e e p p y e + ",
"  > r r r p p y r r r r y 1 > 1 1 1 1 w L I f.l.l.x.W.W.J.F.A.A.k.t.V.F.I.W.N.l.l.l.f.I L w 1 1 1 1 1 r r r e p a > * r y r e + ",
"  > r e e u p y r r r r r 1 1 1 1 < $ 7 q.w.b.F.F.K.oXoXK.F.s.w.w.t.M.F.^.+XU.C.F.F.b.w.q.7 > 1 1 1 1 r r r r p p > > e r r e + ",
"  1 r > > r y 1 < e y r > e r e 1 t H L s.d.T.I.I.U.+XoXU.I.x.s.d.d.P.I./.+XQ.I.I.I.T.d.s.L d 1 e r r r r r r 1 1 r r 1 1 e e + ",
"  $ 1 e e r y 1 > 1 r r 1 r y w * K w.y.V.G.^.oXoXoX+X+XoXoXP.F.F.J.(.oX+X+XoXoXoXoX^.F.V.y.I * w r r 1 1 r r e e y y < > e r + ",
"  # > y y y y 1 > 1 r r r 1 > J Q e.b.N.~.^.oX+X+X+X+X+X+X+X/.^.^.^.+X+X+X+X+X+X+X+XoX^.~.V.p.Q Y > > > > r r y y r r > > e r + ",
"  $ 1 r r y y 1 > 1 e r r < $ P w.s.F.K.oX+X+X+X+X+X+X+X+X+X+X+X+X+X+X+X+X+X+X+X+X+X+X+XoXK.z.w.Q $ $ > > r y r e y r 1 1 e r + ",
"  1 y 1 1 r y 1 > < 1 1 r < $ P w.s.F.K.oX+X+X+X+X+X+X+X+X+X+X+X+X+X+X+X+X+X+X+X+X+X+X+XoXK.z.w.Q $ $ * > r y 1 < y y r r r 1 O ",
"  > r 1 1 r r 1 1 1 1 1 r < $ P w.s.F.K.oX+X+X+X+X+X+X+X+X+X+X+X+X+X+X+X+X+X+X+X+X+X+X+XoXK.z.w.Q $ $ > > r y 1 1 r r r r r r + ",
"  $ 1 > > 1 > e y r r r r < $ P w.s.F.K.oX+X+X+X+X+X+X+X+X+X+X+X+X+X+X+X+X+X+X+X+X+X+X+XoXK.z.w.Q * * e e r y y r 1 1 e r p p @ ",
"  $ 1 1 1 > > e y y r r r > $ P w.s.F.K.oX+X+X+X+X+X+X+X+X+X+X+X+X+X+X+X+X+X+X+X+X+X+X+XoXK.z.w.Q * * r r r r y r > > e r p p @ ",
"  < r r r 1 > e y y r r 1 * $ P w.s.F.K.oX+X+X+X+X+X+X+X+X+X+X+X+X+X+X+X+X+X+X+X+X+X+X+XoXK.z.w.Q * * p a 1 > e r > > r r 1 > X ",
"  1 y y y 1 > e y y r r > * $ P w.s.F.K.oX+X+X+X+X+X+X+X+X+X+X+X+X+X+X+X+X+X+X+X+X+X+X+XoXK.z.w.Q * * a a 1 > e r < < r r 1 $ X ",
"  > r 1 1 e r 1 1 1 r r > * $ P w.s.F.K.oX+X+X+X+X+X(.(.(.(.(.(.(.(.(.(.(.(.oX+X+X+X+X+XoXK.z.w.Q $ * y y 1 > e r e e p p r 1 O ",
"  > e > > r y 1 > 1 r r > * $ P t.s.H.K.oX+X+X+X+X/.K.K.K.K.K.K.K.K.K.K.K.K.Q.+X+X+X+X+XoXK.z.w.Q $ * r r 1 > e r r y a a y e + ",
"  1 u 1 1 1 1 1 1 r p u 1 * $ q P ! l.x.E.W.W.W.W.W.W.W.W.W.W.W.W.W.W.W.W.W.W.W.W.W.W.W.E.x.e.P J $ * r r 1 1 1 1 y y y y e 1 X ",
". e p r r 1 > e r y a p r > * * $ D w.y.F.F.F.F.F.K.+X+X+X+X+X+X+X+X+X+X+X+XU.C.F.F.F.F.F.u.Y $ * $ * e r r r 1 1 r r 1 1 1 1 X ",
"  > r r r p a y r e 1 1 r < * * $ D w.y.F.F.P.I.I.U.Q.Q.Q.Q.Q.Q.Q.Q.Q.Q.Q.Q.W.I.I.I.P.F.F.u.I $ $ $ * * > u a y r 1 1 < > u a @ ",
"  > r r r a a y r 1 > < r < * * $ D w.y.F.F.^.oXoX^.J.J.J.J.J.J.J.J.J.J.J.H.Q.+XoXoX^.F.F.u.I $ $ $ * $ $ u a u r 1 > > > p a # ",
". e p r r r r r r e > 1 y < $ * $ D w.y.F.F.Q././.Q.m.m.m.m.m.m.m.m.m.m.m.m.E./././.Q.F.F.u.I $ * * * e e p a e > r r r r y r + ",
"o r a r r e e r r e > 1 y < * $ $ D w.y.F.F.K.K.K.V.u.y.y.y.y.y.y.y.y.y.y.y.n.K.K.K.K.F.F.u.I $ * * * r r a a e $ y y y y r e + ",
"  > r r r r r r r e 1 e r > $ $ $ D w.y.M.F.F.F.F.b.q.q.q.q.q.q.q.q.q.q.q.q.l.F.F.F.F.F.M.u.I $ * * * 1 w r y r r r r e 1 e e + ",
"  # > e r < * * * * * * * * $ $ $ D w.w.i.i.i.i.i.e.q q q q q q q q q q q 0 ! a.i.i.i.i.i.t.I $ $ * * * * * * < < * * > > e e + ",
"  # > y y > $ $ $ * * * * $ * $ $ D w.w.w.w.w.w.w.6.* $ $ $ $ $ $ $ $ $ $ $ T w.w.w.w.w.w.t.I $ $ $ $ * * * * * $ $ * > > e r + ",
"  # > w e ( ` ` _ | >.o.| p & $ $ 7 J J F F F F F q ; ; - - - - - - - - ; ; t F F F F F F J 0 $ $ $ w ] | o.>.| _ ` ' e $ e r + ",
"  $ 1 $ *  .:.;.-.3.}.|.5.( l r $ $ , > x x C / / ^ ; : A ) A Z Z Z ( ) 3 ; x / / C C x x > $ $ w l C 2.3.|.}.3.-.;.=.y $ e r + ",
"  > e * * O.2.<.<.`.}.}.{.4.X.A & , : g =.:.`.XX:X&X* w %X>XXX X X[.-X-X^ @ _.:X*X X`.:.=.g ; $ l X.=.[.{.}.}.`.<.<.:.y $ e r + ",
"  < r * * O.<.<.<.`.|.|.|.2.-.( & , : g =.:.[.*X;X%Xf ^ -X;X.X}.}.XX;X;X[ u _.;X=X}.[.;.=.g , & l =.:.[.|.|.|.`.<.<.:.y $ < 1 X ",
"  < r * *  .;.-.-.,.1.1.1.:.-.( & $ $ > b Z `.*X;X;X%X%X;X;X.X{.}.XX;X;X-X%X>X;X=X}.`.Z b > $ $ l =.-.1.1.1.1.,.-.-.=.y $ > > X ",
"  1 r * * | =.=.=.;.<.<.<.-.=.( * * * > h k 3.*X;X;X;X;X;X;X.X{.{.XX:X;X;X;X;X;X=X{.3.k h > * * x =.=.<.<.<.<.;.=.=.X.y $ 1 1 O ",
"  1 y < < l c x l ' :.;.;.( z U Q W W T 1 2 S  .'.'.].].].].1.2.2.2.].].].].'.'.>.} S 2 1 T W Q R x C =.;.;.:.' l x z 1 > r r + ",
"  1 y 1 1 * $ $ & V -.=.=.c = P t.w.w.8.6 * g S -.-.<.<.<.<.;.=.=.-.<.<.<.<.:.-...k h $ 6 8.w.t.Q * e X.=.=.-.V & $ $ > < e r + ",
"  1 y 1 1 w w * & V -.=.=.c = P w.w.w.8.6 $ 2 v } ..:.:.:.:.-.=.=.-.:.:.:.:...} Z 3 2 $ 6 8.w.t.Q * e X.=.=.-.V & * * 1 1 e e + ",
"  1 y 1 1 r y < & V ;.-.-.c = P t.t.t.q.6 $ $ 2 k Z =.-.-.-.-.-.-.-.-.-.-.;.} k g $ $ * 6 q.t.t.Q * e O.-.-.;.V $ 1 1 < < e e + ",
"  1 y > > r r 1 $ l ` ` ` i $ D T T T Y 6 * H d 3 z _ _ _ _ _ _ _ _ _ _ _ ` v 3 u J F * 6 Y T T L * w ' _ _ ` l > a a < * 1 e + ",
"  1 y 1 1 r r 1 > > > > > * $ * 6 6 6 6 $ * 6.T $ * > > > > > > > > > > > > * $ J w.Q * $ * 6 6 * $ $ > > > > > 1 a a 1 * 1 e + ",
". e a r r r y 1 > > * * $ $ $ $ $ $ $ * $ * 6.Q q q q q q q q q q q q q q q q 0 Y t.6.* $ $ $ $ $ $ $ * * $ $ 1 r 1 1 e e p p @ ",
"  < y y y r e e e e r e $ $ $ $ $ * * * * * 6.w.9.9.9.9.q.q.q.q.9.9.q.q.9.9.q.8.q.w.6.* $ * * $ $ $ $ $ * < 1 e r 1 1 r r y r + ",
"  # < y y 1 > e y e < > $ $ $ * $ 5 M m > * D J J P w.w.i.a.y.w.w.w.i.a.t.w.T J J J D * > m j * $ $ $ $ * > < e r r r r r 1 > X ",
"  # < r r 1 1 r y e * * * $ $ $ $ j { { > * * $ $ 0 w.t.d.d.u.w.w.t.d.d.y.t.L $ $ $ * $ > { m $ $ $ $ $ * * * w r r r r r 1 * X ",
"  $ 1 1 1 r r e 1 < * * * K P P P U m m N N B n $ 7 I Y R ~ Y Y Y Y R ~ Y Y q $ j B N N N M x P L P L * * * * > 1 r r r r 1 * X ",
"  $ 1 1 1 e r < * $ $ $ $ E w.w.w.W * 4 $.&.%.{ $ $ * * * * * * * * * * * * * % M %.&.&.$.4 L w.w.w.8.7 $ $ $ $ * r r r r 1 > X ",
"  1 r 1 > > > * * * $ $ $ W t.w.w.W $ 4 $.%.*.+.$ $ $ $ $ $ * * $ $ $ $ * $ * % M *.%.%.$.4 P t.w.w.9.7 * $ $ $ * e r r r r 1 O ",
"  1 y 1 > > * $ * * $ $ $ W w.w.w.W $ 4 $.%.*.+.% * $ $ * * * * * * $ $ $ $ $ % M *.%.%.$.3 L w.w.w.8.7 $ * $ $ * r r r r r e + ",
"  > r e e > > * * * $ 6 9 0.u.u.i.0.0 s @.#.#.{ % * * $ $ $ $ * * * $ $ $ $ $ % n #.#.#.@.y T u.u.u.w.q 0 6 $ $ * e e 1 1 e r + ",
"  > r r r > $ $ * * $ 0 7.z.M.M.M.x.7.! 5 4 4 2 $ $ $ $ $ $ * * * * $ $ * * * * < 4 4 4 5 ! d.M.M.M.b.q.7.0 $ $ * * * > > e r + ",
"  > r r r * $ $ $ * $ q w.n.J.J.J.b.y.e.9 8 8 7 6 6 6 6 * $ * * * * $ $ 6 6 6 6 7 8 8 8 9 q.c.J.J.J.G.t.w.q $ $ * * $ > > e r + ",
"  > r r r * $ $ * * $ q w.S.^.^.^.~.).R.g.h.g.p.Q 6.6.Q 7 $ * * * * * * T 6.6.Q e.g.g.h.g.R.~.^.^.^.!.y.w.q $ $ * * $ > > e y + ",
"  1 y r r * $ $ * * $ 9 T Z.Q.Q.Q.^.+X(.J.F.n.p.T T T T 7 $ * * * * * * P T T T e.v.n.F.J.(./.Q.Q.Q.R.~ T 9 $ $ $ $ $ 1 1 r r + ",
". e a r r * * * * * * * * h.L.J.J.Y.@X(.J.H.a.E * 6 6 * * $ $ $ * * * * * 6 6 * L t.a.H.J.(.Q.H.J.J.N.9 * * * * $ $ * r r y r + ",
"  < y y y < * * * $ * * $ r.c.g.g.B.D.D.g.g.9.L $ $ $ $ $ $ $ * * * * * $ $ $ $ H Q 9.g.g.D.Z.g.g.g.j.8 $ $ * * $ * * r y e 1 X ",
"  > r y y r e < $ $ $ $ $ 9 0 0 9 d d d 0 9 9 6 * * * * * * * * * * * * * $ $ $ 6 7 9 9 0 d d 0 0 0 9 * $ $ * * * > > y y 1 > X ",
"  e p 1 1 e r < $ $ $ $ $ $ * $ $ $ $ $ $ $ $ $ * * * * * * * * $ $ * * * $ $ $ $ $ $ $ $ $ $ $ $ $ $ * * $ $ * * 1 1 1 1 e e O ",
"o r a > > 1 r < $ $ $ $ * * * * $ $ $ $ * * * * * * $ $ * * * * $ $ * * * * * * $ $ $ $ * * * * * * $ * $ * * * * 1 1 > > r y + ",
"  e p < < r r < $ $ $ $ $ $ * * $ $ $ $ * * * * * * $ $ * * * * $ $ * * * * * * $ $ * * * * * * * $ * * $ $ * * * e e e 1 r r + ",
"  1 y 1 1 r y 1 * * $ $ $ $ $ $ * * * * * * $ $ * * $ * * * $ $ * * * * * * * * * * * * * * $ $ * * * * $ $ $ * > y y r r r 1 O ",
"  > r 1 1 e r e 1 < * $ $ $ $ * * * * * * * $ $ * * * * * $ $ $ * * * * * * * * * * * * * * $ $ * $ $ $ $ $ $ > 1 r r r r y r + ",
"  $ 1 > > < < e y r 1 < $ $ * * * * * * * * $ $ * * $ $ * * * * * * * * * * $ $ * * * * * * $ $ * * $ $ $ < w r r 1 1 e r p a @ ",
"  $ 1 1 1 > > e y y r e * * * * * * * * * * $ $ * * $ $ * * * * * * * * * * $ $ * * * * * * $ * * * * < < e r r r > > e r u p @ ",
"  < y r r 1 > e y y r r > > > 1 e w $ $ * * * * * * * $ * * * * $ $ $ * * * * $ * $ $ $ * * * > 1 e r p p 1 > e r > > r r 1 > X ",
"  < r e e e e 1 e e r r > > > 1 r e $ $ * * * * * * $ $ * * * * $ $ $ * * * * $ * $ $ $ * * * > 1 r r u p 1 > e r 1 e y p e 1 + "
};
