/* XPM */
static char *_e24bc1e71f84ebef2aab087961bf5fbLNfahfEIMqKeXi7f[] = {
/* columns rows colors chars-per-pixel */
"64 64 60 1 ",
"  c #252525",
". c #010101",
"X c black",
"o c #010100",
"O c #26261D",
"+ c #313126",
"@ c #303025",
"# c #020202",
"$ c #828264",
"% c #A9A982",
"& c #A7A780",
"* c #AAAA83",
"= c #838365",
"- c #ABAB83",
"; c #A8A780",
": c #A7A67E",
"> c #A7A67F",
", c #A8A67F",
"< c #A5A47C",
"1 c #A4A279",
"2 c #7E7D5D",
"3 c #838364",
"4 c #ABAB84",
"5 c #A59F74",
"6 c #A2996B",
"7 c #A49A6D",
"8 c #8F8252",
"9 c #756430",
"0 c #5A4E26",
"q c #A59F73",
"w c #A29868",
"e c #A29869",
"r c #A39A6B",
"t c #8D7F4E",
"y c #715E29",
"u c #574921",
"i c #A49A6B",
"p c #ACAC84",
"a c #92895C",
"s c #80713F",
"d c #817240",
"f c #827341",
"g c #7A6A37",
"h c #715F2A",
"j c #868667",
"k c #B0B088",
"l c #8B8051",
"z c #715E28",
"x c #72602A",
"c c #72602B",
"v c #75622C",
"b c #594B22",
"n c #494938",
"m c #60604A",
"M c #4B462C",
"N c #3D3316",
"B c #3E3417",
"V c #3F3518",
"C c #302912",
"Z c white",
/* pixels */
"                                                                ",
"................................................................",
"XXXXXXXXXXXXXXXXXXXXXXXXXXXXXXXXXXXXXXXXXXXXXXXXXXXXXXXXXXXXXXXX",
"XXoO+@@@@@@@@@@@@@@@@@@@@@@@@@@@@@@@@@@@@@@@@@@@@@@@@@@@@@@@+OoX",
"XX#$%&&&&&&&&&&&&&&&&&&&&&&&&&&&&&&&&&&&&&&&&&&&&&&&&&&&&&&&*$#X",
"XX#=-;:>>>>>>>>>>>>>>>>>>>>>>>>>>>>>>>>>>>>>>>>>>>>>>>>>>>,<12#X",
"XX#34566666666666666666666666666666666666666666666666666667890.X",
"XX#34qweeeeeeeeeeeeeeeeeeeeeeeeeeeeeeeeeeeeeeeeeeeeeeeeeeertyu.X",
"XX#34qweeeeeeeeeeeeeeeeeeeeeeeeeeeeeeeeeeeeeeeeeeeeeeeeeeertyu.X",
"XX#34qweeeeeeeeeeeeeeeeeeeeeeeeeeeeeeeeeeeeeeeeeeeeeeeeeeertyu.X",
"XX#34qweeeeeeeeeeeeeeeeeeeeeeeeeeeeeeeeeeeeeeeeeeeeeeeeeeertyu.X",
"XX#34qweeeeeeeeeeeeeeeeeeeeeeeeeeeeeeeeeeeeeeeeeeeeeeeeeeertyu.X",
"XX#34qweeeeeeeeeeeeeeeeeeeeeeeeeeeeeeeeeeeeeeeeeeeeeeeeeeertyu.X",
"XX#34qweeeeeeeeeeeeeeeeeeeeeeeeeeeeeeeeeeeeeeeeeeeeeeeeeeertyu.X",
"XX#34qweeeeeeeeeeeeeeeeeeeeeeeeeeeeeeeeeeeeeeeeeeeeeeeeeeertyu.X",
"XX#34qweeeeeeeeeeeeeeeeeeeeeeeeeeeeeeeeeeeeeeeeeeeeeeeeeeertyu.X",
"XX#34qweeeeeeeeeeeeeeeeeeeeeeeeeeeeeeeeeeeeeeeeeeeeeeeeeeertyu.X",
"XX#34qweeeeeeeeeeeeeeeeeeeeeeeeeeeeeeeeeeeeeeeeeeeeeeeeeeertyu.X",
"XX#34qweeeeeeeeeeeeeeeeeeeeeeeeeeeeeeeeeeeeeeeeeeeeeeeeeeertyu.X",
"XX#34qweeeeeeeeeeeeeeeeeeeeeeeeeeeeeeeeeeeeeeeeeeeeeeeeeeertyu.X",
"XX#34qweeeeeeeeeeeeeeeeeeeeeeeeeeeeeeeeeeeeeeeeeeeeeeeeeeertyu.X",
"XX#34qweeeeeeeeeeeeeeeeeeeeeeeeeeeeeeeeeeeeeeeeeeeeeeeeeeertyu.X",
"XX#34qweeeeeeeeeeeeeeeeeeeeeeeeeeeeeeeeeeeeeeeeeeeeeeeeeeertyu.X",
"XX#34qweeeeeeeeeeeeeeeeeeeeeeeeeeeeeeeeeeeeeeeeeeeeeeeeeeertyu.X",
"XX#34qweeeeeeeeeeeeeeeeeeeeeeeeeeeeeeeeeeeeeeeeeeeeeeeeeeertyu.X",
"XX#34qweeeeeeeeeeeeeeeeeeeeeeeeeeeeeeeeeeeeeeeeeeeeeeeeeeertyu.X",
"XX#34qweeeeeeeeeeeeeeeeeeeeeeeeeeeeeeeeeeeeeeeeeeeeeeeeeeertyu.X",
"XX#34qweeeeeeeeeeeeeeeeeeeeeeeeeeeeeeeeeeeeeeeeeeeeeeeeeeertyu.X",
"XX#34qweeeeeeeeeeeeeeeeeeeeeeeeeeeeeeeeeeeeeeeeeeeeeeeeeeertyu.X",
"XX#34qweeeeeeeeeeeeeeeeeeeeeeeeeeeeeeeeeeeeeeeeeeeeeeeeeeertyu.X",
"XX#34qweeeeeeeeeeeeeeeeeeeeeeeeeeeeeeeeeeeeeeeeeeeeeeeeeeertyu.X",
"XX#34qweeeeeeeeeeeeeeeeeeeeeeeeeeeeeeeeeeeeeeeeeeeeeeeeeeertyu.X",
"XX#34qweeeeeeeeeeeeeeeeeeeeeeeeeeeeeeeeeeeeeeeeeeeeeeeeeeertyu.X",
"XX#34qweeeeeeeeeeeeeeeeeeeeeeeeeeeeeeeeeeeeeeeeeeeeeeeeeeertyu.X",
"XX#34qweeeeeeeeeeeeeeeeeeeeeeeeeeeeeeeeeeeeeeeeeeeeeeeeeeertyu.X",
"XX#34qweeeeeeeeeeeeeeeeeeeeeeeeeeeeeeeeeeeeeeeeeeeeeeeeeeertyu.X",
"XX#34qweeeeeeeeeeeeeeeeeeeeeeeeeeeeeeeeeeeeeeeeeeeeeeeeeeertyu.X",
"XX#34qweeeeeeeeeeeeeeeeeeeeeeeeeeeeeeeeeeeeeeeeeeeeeeeeeeertyu.X",
"XX#34qweeeeeeeeeeeeeeeeeeeeeeeeeeeeeeeeeeeeeeeeeeeeeeeeeeertyu.X",
"XX#34qweeeeeeeeeeeeeeeeeeeeeeeeeeeeeeeeeeeeeeeeeeeeeeeeeeertyu.X",
"XX#34qweeeeeeeeeeeeeeeeeeeeeeeeeeeeeeeeeeeeeeeeeeeeeeeeeeertyu.X",
"XX#34qweeeeeeeeeeeeeeeeeeeeeeeeeeeeeeeeeeeeeeeeeeeeeeeeeeertyu.X",
"XX#34qweeeeeeeeeeeeeeeeeeeeeeeeeeeeeeeeeeeeeeeeeeeeeeeeeeertyu.X",
"XX#34qweeeeeeeeeeeeeeeeeeeeeeeeeeeeeeeeeeeeeeeeeeeeeeeeeeertyu.X",
"XX#34qweeeeeeeeeeeeeeeeeeeeeeeeeeeeeeeeeeeeeeeeeeeeeeeeeeertyu.X",
"XX#34qweeeeeeeeeeeeeeeeeeeeeeeeeeeeeeeeeeeeeeeeeeeeeeeeeeertyu.X",
"XX#34qweeeeeeeeeeeeeeeeeeeeeeeeeeeeeeeeeeeeeeeeeeeeeeeeeeertyu.X",
"XX#34qweeeeeeeeeeeeeeeeeeeeeeeeeeeeeeeeeeeeeeeeeeeeeeeeeeertyu.X",
"XX#34qweeeeeeeeeeeeeeeeeeeeeeeeeeeeeeeeeeeeeeeeeeeeeeeeeeertyu.X",
"XX#34qweeeeeeeeeeeeeeeeeeeeeeeeeeeeeeeeeeeeeeeeeeeeeeeeeeertyu.X",
"XX#34qweeeeeeeeeeeeeeeeeeeeeeeeeeeeeeeeeeeeeeeeeeeeeeeeeeertyu.X",
"XX#34qweeeeeeeeeeeeeeeeeeeeeeeeeeeeeeeeeeeeeeeeeeeeeeeeeeertyu.X",
"XX#34qweeeeeeeeeeeeeeeeeeeeeeeeeeeeeeeeeeeeeeeeeeeeeeeeeeertyu.X",
"XX#34qweeeeeeeeeeeeeeeeeeeeeeeeeeeeeeeeeeeeeeeeeeeeeeeeeeertyu.X",
"XX#34qweeeeeeeeeeeeeeeeeeeeeeeeeeeeeeeeeeeeeeeeeeeeeeeeeeertyu.X",
"XX#34qweeeeeeeeeeeeeeeeeeeeeeeeeeeeeeeeeeeeeeeeeeeeeeeeeeertyu.X",
"XX#34qweeeeeeeeeeeeeeeeeeeeeeeeeeeeeeeeeeeeeeeeeeeeeeeeeeertyu.X",
"XX#34qweeeeeeeeeeeeeeeeeeeeeeeeeeeeeeeeeeeeeeeeeeeeeeeeeeertyu.X",
"XX#34qweeeeeeeeeeeeeeeeeeeeeeeeeeeeeeeeeeeeeeeeeeeeeeeeeeertyu.X",
"XX#34qeeeeeeeeeeeeeeeeeeeeeeeeeeeeeeeeeeeeeeeeeeeeeeeeeeeeityu.X",
"XX#3pasdddddddddddddddddddddddddddddddddddddddddddddddddddfghu.X",
"XX#jklzxxxxxxxxxxxxxxxxxxxxxxxxxxxxxxxxxxxxxxxxxxxxxxxxxxxxcvb.X",
"XX.nmMNBBBBBBBBBBBBBBBBBBBBBBBBBBBBBBBBBBBBBBBBBBBBBBBBBBBBBVCoX",
"XXXXoXXXXXXXXXXXXXXXXXXXXXXXXXXXXXXXXXXXXXXXXXXXXXXXXXXXXXXXXXXX"
};
